# Blender v3.0.0 OBJ File: 'salon.blend'
# www.blender.org
mtllib fauteil.mtl
o Cube.002_Cube.003
v 2.125389 0.544305 -6.080390
v 2.125389 0.775334 -6.080390
v 2.125391 0.544305 -1.292262
v 2.125391 0.775334 -1.292262
v 0.125389 0.544305 -6.080390
v 0.125389 0.775334 -6.080390
v 0.125390 0.544305 -1.292262
v 0.125390 0.775334 -1.292262
v 2.125390 0.642058 -2.045768
v 2.125390 1.677582 -2.045768
v 2.125390 0.642058 -1.326885
v 2.125390 1.677582 -1.326885
v 0.125390 0.642058 -2.045767
v 0.125390 1.677582 -2.045767
v 0.125390 0.642058 -1.326885
v 0.125390 1.677582 -1.326885
v 2.125389 0.642058 -6.045768
v 2.125389 1.677582 -6.045768
v 2.125389 0.642058 -5.326885
v 2.125389 1.677582 -5.326885
v 0.125389 0.642058 -6.045767
v 0.125389 1.677582 -6.045767
v 0.125389 0.642058 -5.326884
v 0.125389 1.677582 -5.326884
v 2.125390 0.801622 -2.325198
v 1.952969 0.694870 -2.325197
v 2.125390 1.255498 -3.359054
v 1.952968 1.362250 -3.359054
v 1.952968 1.255498 -3.835631
v 2.125390 0.801622 -3.359054
v 1.952968 0.801622 -3.835631
v 1.952968 0.694870 -3.359054
v 1.952968 0.694870 -5.144187
v 1.952968 0.801622 -5.620765
v 2.125389 0.801622 -5.144188
v 1.952968 1.255498 -5.620765
v 1.952968 1.362250 -5.144187
v 2.125389 1.255498 -5.144188
v 1.952968 0.694870 -4.110331
v 2.125390 0.801622 -4.110332
v 1.952968 0.801622 -3.633754
v 1.952968 1.362250 -4.110331
v 1.952968 1.255498 -3.633754
v 2.125390 1.255498 -4.110332
v 0.297810 0.694870 -5.144187
v 0.125389 0.801622 -5.144187
v 0.297810 0.801622 -5.620764
v 0.297810 1.362250 -5.144187
v 0.297810 1.255498 -5.620764
v 0.125389 1.255498 -5.144187
v 0.297811 0.694870 -4.110331
v 0.297811 0.801622 -3.633754
v 0.125389 0.801622 -4.110331
v 0.297811 1.362250 -4.110331
v 0.125389 1.255498 -4.110331
v 0.297811 1.255498 -3.633754
v 1.952969 0.801622 -1.848620
v 1.952969 1.362250 -2.325197
v 1.952969 1.255498 -1.848620
v 2.125390 1.255498 -2.325198
v 0.297811 0.694870 -3.359053
v 0.125390 0.801622 -3.359053
v 0.297811 0.801622 -3.835630
v 0.297811 1.362250 -3.359053
v 0.297811 1.255498 -3.835630
v 0.125390 1.255498 -3.359053
v 0.297811 0.694870 -2.325197
v 0.297812 0.801622 -1.848620
v 0.125390 0.801622 -2.325197
v 0.297811 1.362250 -2.325197
v 0.125390 1.255498 -2.325197
v 0.297812 1.255498 -1.848620
v 1.567878 0.740543 -2.174248
v 1.461126 0.897705 -2.174248
v 2.021753 0.740543 -3.208105
v 2.128505 0.897705 -3.208105
v 2.021753 0.897705 -3.684682
v 1.567877 0.740543 -3.208105
v 1.567877 0.897705 -3.684682
v 1.461125 0.897705 -3.208105
v 1.567878 0.897705 -1.697671
v 2.128505 0.897705 -2.174249
v 2.021754 0.897705 -1.697671
v 2.021753 0.740543 -2.174248
v 1.461126 2.406381 -3.208105
v 1.567877 2.563543 -3.208105
v 1.567877 2.406381 -3.684682
v 2.128505 2.406381 -3.208105
v 2.021753 2.406381 -3.684682
v 2.021753 2.563543 -3.208105
v 1.461126 2.406381 -2.174249
v 1.567878 2.406381 -1.697672
v 1.567878 2.563544 -2.174249
v 2.128505 2.406381 -2.174249
v 2.021754 2.563544 -2.174249
v 2.021754 2.406381 -1.697671
v 1.567877 0.740543 -4.057827
v 1.461125 0.897705 -4.057827
v 2.021753 0.740543 -5.091683
v 2.128505 0.897705 -5.091683
v 2.021753 0.897705 -5.568260
v 1.567877 0.740543 -5.091683
v 1.567877 0.897705 -5.568260
v 1.461125 0.897705 -5.091683
v 1.567877 0.897705 -3.581250
v 2.128505 0.897705 -4.057827
v 2.021753 0.897705 -3.581250
v 2.021753 0.740543 -4.057827
v 1.461125 2.406381 -5.091683
v 1.567877 2.563543 -5.091683
v 1.567877 2.406381 -5.568261
v 2.128505 2.406381 -5.091683
v 2.021753 2.406381 -5.568261
v 2.021753 2.563543 -5.091683
v 1.461125 2.406381 -4.057827
v 1.567877 2.406381 -3.581250
v 1.567877 2.563544 -4.057827
v 2.128505 2.406381 -4.057827
v 2.021753 2.563544 -4.057827
v 2.021753 2.406381 -3.581250
v 0.293088 0.162914 -1.486839
v 0.293088 0.745683 -1.486839
v 0.293088 0.162914 -1.349835
v 0.293088 0.745683 -1.349835
v 0.130994 0.162914 -1.486839
v 0.130994 0.745683 -1.486839
v 0.130994 0.162914 -1.349835
v 0.130994 0.745683 -1.349835
v 2.097910 0.162914 -1.486840
v 2.097910 0.745683 -1.486840
v 2.097910 0.162914 -1.349836
v 2.097910 0.745683 -1.349836
v 1.935816 0.162914 -1.486840
v 1.935816 0.745683 -1.486840
v 1.935816 0.162914 -1.349836
v 1.935816 0.745683 -1.349836
v 0.293086 0.162914 -5.975926
v 0.293086 0.745683 -5.975926
v 0.293086 0.162914 -5.838922
v 0.293086 0.745683 -5.838922
v 0.130993 0.162914 -5.975926
v 0.130993 0.745683 -5.975926
v 0.130993 0.162914 -5.838922
v 0.130993 0.745683 -5.838922
v 2.097908 0.162914 -5.975926
v 2.097908 0.745683 -5.975926
v 2.097908 0.162914 -5.838923
v 2.097908 0.745683 -5.838923
v 1.935815 0.162914 -5.975926
v 1.935815 0.745683 -5.975926
v 1.935815 0.162914 -5.838923
v 1.935815 0.745683 -5.838923
vt 0.375000 0.000000
vt 0.625000 0.000000
vt 0.625000 0.250000
vt 0.375000 0.250000
vt 0.625000 0.500000
vt 0.375000 0.500000
vt 0.625000 0.750000
vt 0.375000 0.750000
vt 0.625000 1.000000
vt 0.375000 1.000000
vt 0.125000 0.500000
vt 0.125000 0.750000
vt 0.875000 0.500000
vt 0.875000 0.750000
vt 0.375000 0.000000
vt 0.625000 0.000000
vt 0.625000 0.250000
vt 0.375000 0.250000
vt 0.625000 0.500000
vt 0.375000 0.500000
vt 0.625000 0.750000
vt 0.375000 0.750000
vt 0.625000 1.000000
vt 0.375000 1.000000
vt 0.125000 0.500000
vt 0.125000 0.750000
vt 0.875000 0.500000
vt 0.875000 0.750000
vt 0.375000 0.000000
vt 0.625000 0.000000
vt 0.625000 0.250000
vt 0.375000 0.250000
vt 0.625000 0.500000
vt 0.375000 0.500000
vt 0.625000 0.750000
vt 0.375000 0.750000
vt 0.625000 1.000000
vt 0.375000 1.000000
vt 0.125000 0.500000
vt 0.125000 0.750000
vt 0.875000 0.500000
vt 0.875000 0.750000
vt 0.416627 0.771553
vt 0.583373 0.771553
vt 0.583373 0.978447
vt 0.416627 0.978447
vt 0.416627 0.559962
vt 0.583373 0.559962
vt 0.583373 0.690038
vt 0.416627 0.690038
vt 0.416627 0.771553
vt 0.583373 0.771553
vt 0.583373 0.978447
vt 0.416627 0.978447
vt 0.646553 0.559962
vt 0.853447 0.559962
vt 0.853447 0.690038
vt 0.646553 0.690038
vt 0.416627 0.059962
vt 0.583373 0.059962
vt 0.583373 0.190038
vt 0.416627 0.190038
vt 0.416627 0.271553
vt 0.583373 0.271553
vt 0.583373 0.478447
vt 0.416627 0.478447
vt 0.146553 0.690038
vt 0.146553 0.750000
vt 0.125000 0.690038
vt 0.625000 0.978447
vt 0.583373 1.000000
vt 0.146553 0.559962
vt 0.125000 0.559962
vt 0.146553 0.500000
vt 0.625000 0.271553
vt 0.625000 0.271553
vt 0.583373 0.250000
vt 0.353447 0.690038
vt 0.375000 0.690038
vt 0.353447 0.750000
vt 0.625000 0.771553
vt 0.625000 0.771553
vt 0.583373 0.750000
vt 0.353447 0.559962
vt 0.353447 0.500000
vt 0.375000 0.559962
vt 0.625000 0.559962
vt 0.625000 0.559962
vt 0.583373 0.500000
vt 0.416627 0.000000
vt 0.583373 0.000000
vt 0.625000 0.059962
vt 0.625000 0.190038
vt 0.625000 0.478447
vt 0.416627 0.559962
vt 0.583373 0.559962
vt 0.583373 0.690038
vt 0.416627 0.690038
vt 0.646553 0.559962
vt 0.853447 0.559962
vt 0.853447 0.690038
vt 0.646553 0.690038
vt 0.416627 0.059962
vt 0.583373 0.059962
vt 0.583373 0.190038
vt 0.416627 0.190038
vt 0.416627 0.271553
vt 0.583373 0.271553
vt 0.583373 0.478447
vt 0.416627 0.478447
vt 0.146553 0.690038
vt 0.146553 0.750000
vt 0.125000 0.690038
vt 0.625000 0.978447
vt 0.583373 1.000000
vt 0.146553 0.559962
vt 0.125000 0.559962
vt 0.146553 0.500000
vt 0.625000 0.271553
vt 0.625000 0.271553
vt 0.583373 0.250000
vt 0.353447 0.690038
vt 0.375000 0.690038
vt 0.353447 0.750000
vt 0.625000 0.771553
vt 0.625000 0.771553
vt 0.583373 0.750000
vt 0.353447 0.559962
vt 0.353447 0.500000
vt 0.375000 0.559962
vt 0.625000 0.559962
vt 0.625000 0.559962
vt 0.583373 0.500000
vt 0.416627 0.000000
vt 0.583373 0.000000
vt 0.625000 0.059962
vt 0.625000 0.190038
vt 0.625000 0.478447
vt 0.416627 0.771553
vt 0.583373 0.771553
vt 0.583373 0.978447
vt 0.416627 0.978447
vt 0.416627 0.559962
vt 0.583373 0.559962
vt 0.583373 0.690038
vt 0.416627 0.690038
vt 0.646553 0.559962
vt 0.853447 0.559962
vt 0.853447 0.690038
vt 0.646553 0.690038
vt 0.416627 0.059962
vt 0.583373 0.059962
vt 0.583373 0.190038
vt 0.416627 0.190038
vt 0.416627 0.271553
vt 0.583373 0.271553
vt 0.583373 0.478447
vt 0.416627 0.478447
vt 0.146553 0.690038
vt 0.146553 0.750000
vt 0.125000 0.690038
vt 0.625000 0.978447
vt 0.583373 1.000000
vt 0.146553 0.559962
vt 0.125000 0.559962
vt 0.146553 0.500000
vt 0.625000 0.271553
vt 0.625000 0.271553
vt 0.583373 0.250000
vt 0.353447 0.690038
vt 0.375000 0.690038
vt 0.353447 0.750000
vt 0.625000 0.771553
vt 0.625000 0.771553
vt 0.583373 0.750000
vt 0.353447 0.559962
vt 0.353447 0.500000
vt 0.375000 0.559962
vt 0.625000 0.559962
vt 0.625000 0.559962
vt 0.583373 0.500000
vt 0.416627 0.000000
vt 0.583373 0.000000
vt 0.625000 0.059962
vt 0.625000 0.190038
vt 0.625000 0.478447
vt 0.416627 0.771553
vt 0.583373 0.771553
vt 0.583373 0.978447
vt 0.416627 0.978447
vt 0.416627 0.559962
vt 0.583373 0.559962
vt 0.583373 0.690038
vt 0.416627 0.690038
vt 0.646553 0.559962
vt 0.853447 0.559962
vt 0.853447 0.690038
vt 0.646553 0.690038
vt 0.416627 0.059962
vt 0.583373 0.059962
vt 0.583373 0.190038
vt 0.416627 0.190038
vt 0.416627 0.271553
vt 0.583373 0.271553
vt 0.583373 0.478447
vt 0.416627 0.478447
vt 0.146553 0.690038
vt 0.146553 0.750000
vt 0.125000 0.690038
vt 0.625000 0.978447
vt 0.583373 1.000000
vt 0.146553 0.559962
vt 0.125000 0.559962
vt 0.146553 0.500000
vt 0.625000 0.271553
vt 0.625000 0.271553
vt 0.583373 0.250000
vt 0.353447 0.690038
vt 0.375000 0.690038
vt 0.353447 0.750000
vt 0.625000 0.771553
vt 0.625000 0.771553
vt 0.583373 0.750000
vt 0.353447 0.559962
vt 0.353447 0.500000
vt 0.375000 0.559962
vt 0.625000 0.559962
vt 0.625000 0.559962
vt 0.583373 0.500000
vt 0.416627 0.000000
vt 0.583373 0.000000
vt 0.625000 0.059962
vt 0.625000 0.190038
vt 0.625000 0.478447
vt 0.375000 0.000000
vt 0.625000 0.000000
vt 0.625000 0.250000
vt 0.375000 0.250000
vt 0.625000 0.500000
vt 0.375000 0.500000
vt 0.625000 0.750000
vt 0.375000 0.750000
vt 0.625000 1.000000
vt 0.375000 1.000000
vt 0.125000 0.500000
vt 0.125000 0.750000
vt 0.875000 0.500000
vt 0.875000 0.750000
vt 0.375000 0.000000
vt 0.625000 0.000000
vt 0.625000 0.250000
vt 0.375000 0.250000
vt 0.625000 0.500000
vt 0.375000 0.500000
vt 0.625000 0.750000
vt 0.375000 0.750000
vt 0.625000 1.000000
vt 0.375000 1.000000
vt 0.125000 0.500000
vt 0.125000 0.750000
vt 0.875000 0.500000
vt 0.875000 0.750000
vt 0.375000 0.000000
vt 0.625000 0.000000
vt 0.625000 0.250000
vt 0.375000 0.250000
vt 0.625000 0.500000
vt 0.375000 0.500000
vt 0.625000 0.750000
vt 0.375000 0.750000
vt 0.625000 1.000000
vt 0.375000 1.000000
vt 0.125000 0.500000
vt 0.125000 0.750000
vt 0.875000 0.500000
vt 0.875000 0.750000
vt 0.375000 0.000000
vt 0.625000 0.000000
vt 0.625000 0.250000
vt 0.375000 0.250000
vt 0.625000 0.500000
vt 0.375000 0.500000
vt 0.625000 0.750000
vt 0.375000 0.750000
vt 0.625000 1.000000
vt 0.375000 1.000000
vt 0.125000 0.500000
vt 0.125000 0.750000
vt 0.875000 0.500000
vt 0.875000 0.750000
vn 1.0000 0.0000 -0.0000
vn 0.0000 0.0000 1.0000
vn -1.0000 0.0000 0.0000
vn 0.0000 0.0000 -1.0000
vn 0.0000 -1.0000 0.0000
vn 0.0000 1.0000 -0.0000
vn 0.5171 -0.8352 -0.1871
vn 0.5171 0.8352 -0.1871
vn 0.5171 -0.8352 0.1871
vn 0.5171 0.8352 0.1871
vn -0.5171 -0.8352 -0.1871
vn -0.5171 0.8352 -0.1871
vn -0.5171 -0.8352 0.1871
vn -0.5171 0.8352 0.1871
vn 0.5264 -0.8502 -0.0000
vn 0.9403 0.0000 -0.3402
vn 0.5264 0.8502 -0.0000
vn 0.9403 0.0000 0.3402
vn 0.0000 -0.9758 0.2186
vn 0.0000 0.9758 0.2186
vn -0.9403 0.0000 0.3402
vn -0.5264 -0.8502 0.0000
vn -0.5264 0.8502 0.0000
vn -0.9403 0.0000 -0.3402
vn 0.0000 -0.9758 -0.2186
vn 0.0000 0.9758 -0.2186
vn -0.8134 -0.5525 -0.1822
vn 0.8134 -0.5525 -0.1822
vn -0.8134 -0.5525 0.1822
vn 0.8134 -0.5525 0.1822
vn -0.8134 0.5525 -0.1822
vn 0.8134 0.5525 -0.1822
vn -0.8134 0.5525 0.1822
vn 0.8134 0.5525 0.1822
vn -0.8272 -0.5619 0.0000
vn -0.0000 -0.9497 -0.3132
vn 0.8272 -0.5619 0.0000
vn 0.0000 -0.9497 0.3132
vn -0.9758 0.0000 0.2186
vn 0.9758 -0.0000 0.2186
vn 0.0000 0.9497 0.3132
vn -0.8272 0.5619 0.0000
vn 0.8272 0.5619 -0.0000
vn 0.0000 0.9497 -0.3132
vn -0.9758 0.0000 -0.2186
vn 0.9758 -0.0000 -0.2186
usemtl None
s off
f 1/1/1 2/2/1 4/3/1 3/4/1
f 3/4/2 4/3/2 8/5/2 7/6/2
f 7/6/3 8/5/3 6/7/3 5/8/3
f 5/8/4 6/7/4 2/9/4 1/10/4
f 3/11/5 7/6/5 5/8/5 1/12/5
f 8/5/6 4/13/6 2/14/6 6/7/6
f 9/15/1 10/16/1 12/17/1 11/18/1
f 11/18/2 12/17/2 16/19/2 15/20/2
f 15/20/3 16/19/3 14/21/3 13/22/3
f 13/22/4 14/21/4 10/23/4 9/24/4
f 11/25/5 15/20/5 13/22/5 9/26/5
f 16/19/6 12/27/6 10/28/6 14/21/6
f 17/29/1 18/30/1 20/31/1 19/32/1
f 19/32/2 20/31/2 24/33/2 23/34/2
f 23/34/3 24/33/3 22/35/3 21/36/3
f 21/36/4 22/35/4 18/37/4 17/38/4
f 19/39/5 23/34/5 21/36/5 17/40/5
f 24/33/6 20/41/6 18/42/6 22/35/6
f 47/43/4 49/44/4 36/45/4 34/46/4
f 53/47/3 55/48/3 50/49/3 46/50/3
f 63/51/4 65/52/4 29/53/4 31/54/4
f 54/55/6 42/56/6 37/57/6 48/58/6
f 35/59/1 38/60/1 44/61/1 40/62/1
f 41/63/2 43/64/2 56/65/2 52/66/2
f 33/67/7 34/68/7 35/69/7
f 36/45/8 37/70/8 38/71/8
f 39/72/9 40/73/9 41/74/9
f 42/75/10 43/76/10 44/77/10
f 45/78/11 46/79/11 47/80/11
f 48/81/12 49/82/12 50/83/12
f 51/84/13 52/85/13 53/86/13
f 54/87/14 55/88/14 56/89/14
f 39/72/15 33/67/15 35/69/15 40/73/15
f 34/90/16 36/91/16 38/60/16 35/59/16
f 37/92/17 42/93/17 44/61/17 38/60/17
f 43/64/18 41/63/18 40/62/18 44/61/18
f 51/84/19 39/72/19 41/74/19 52/85/19
f 42/75/20 54/94/20 56/65/20 43/64/20
f 55/48/21 53/47/21 52/66/21 56/65/21
f 45/78/22 51/84/22 53/47/22 46/50/22
f 54/55/23 48/58/23 50/49/23 55/48/23
f 49/44/24 47/43/24 46/50/24 50/49/24
f 33/67/25 45/78/25 47/80/25 34/68/25
f 48/81/26 37/70/26 36/45/26 49/44/26
f 39/72/5 51/84/5 45/78/5 33/67/5
f 69/95/3 71/96/3 66/97/3 62/98/3
f 70/99/6 58/100/6 28/101/6 64/102/6
f 30/103/1 27/104/1 60/105/1 25/106/1
f 57/107/2 59/108/2 72/109/2 68/110/2
f 32/111/7 31/112/7 30/113/7
f 29/53/8 28/114/8 27/115/8
f 26/116/9 25/117/9 57/118/9
f 58/119/10 59/120/10 60/121/10
f 61/122/11 62/123/11 63/124/11
f 64/125/12 65/126/12 66/127/12
f 67/128/13 68/129/13 69/130/13
f 70/131/14 71/132/14 72/133/14
f 26/116/15 32/111/15 30/113/15 25/117/15
f 31/134/16 29/135/16 27/104/16 30/103/16
f 28/136/17 58/137/17 60/105/17 27/104/17
f 59/108/18 57/107/18 25/106/18 60/105/18
f 67/128/19 26/116/19 57/118/19 68/129/19
f 58/119/20 70/138/20 72/109/20 59/108/20
f 71/96/21 69/95/21 68/110/21 72/109/21
f 61/122/22 67/128/22 69/95/22 62/98/22
f 70/99/23 64/102/23 66/97/23 71/96/23
f 65/52/24 63/51/24 62/98/24 66/97/24
f 32/111/25 61/122/25 63/124/25 31/112/25
f 64/125/26 28/114/26 29/53/26 65/52/26
f 26/116/5 67/128/5 61/122/5 32/111/5
f 87/139/4 89/140/4 77/141/4 79/142/4
f 93/143/6 95/144/6 90/145/6 86/146/6
f 94/147/1 82/148/1 76/149/1 88/150/1
f 78/151/5 75/152/5 84/153/5 73/154/5
f 81/155/2 83/156/2 96/157/2 92/158/2
f 80/159/27 79/160/27 78/161/27
f 77/141/28 76/162/28 75/163/28
f 74/164/29 73/165/29 81/166/29
f 82/167/30 83/168/30 84/169/30
f 85/170/31 86/171/31 87/172/31
f 88/173/32 89/174/32 90/175/32
f 91/176/33 92/177/33 93/178/33
f 94/179/34 95/180/34 96/181/34
f 74/164/35 80/159/35 78/161/35 73/165/35
f 79/182/36 77/183/36 75/152/36 78/151/36
f 76/184/37 82/185/37 84/153/37 75/152/37
f 83/156/38 81/155/38 73/154/38 84/153/38
f 91/176/39 74/164/39 81/166/39 92/177/39
f 82/167/40 94/186/40 96/157/40 83/156/40
f 95/144/41 93/143/41 92/158/41 96/157/41
f 85/170/42 91/176/42 93/143/42 86/146/42
f 94/147/43 88/150/43 90/145/43 95/144/43
f 89/140/44 87/139/44 86/146/44 90/145/44
f 80/159/45 85/170/45 87/172/45 79/160/45
f 88/173/46 76/162/46 77/141/46 89/140/46
f 74/164/3 91/176/3 85/170/3 80/159/3
f 111/187/4 113/188/4 101/189/4 103/190/4
f 117/191/6 119/192/6 114/193/6 110/194/6
f 118/195/1 106/196/1 100/197/1 112/198/1
f 102/199/5 99/200/5 108/201/5 97/202/5
f 105/203/2 107/204/2 120/205/2 116/206/2
f 104/207/27 103/208/27 102/209/27
f 101/189/28 100/210/28 99/211/28
f 98/212/29 97/213/29 105/214/29
f 106/215/30 107/216/30 108/217/30
f 109/218/31 110/219/31 111/220/31
f 112/221/32 113/222/32 114/223/32
f 115/224/33 116/225/33 117/226/33
f 118/227/34 119/228/34 120/229/34
f 98/212/35 104/207/35 102/209/35 97/213/35
f 103/230/36 101/231/36 99/200/36 102/199/36
f 100/232/37 106/233/37 108/201/37 99/200/37
f 107/204/38 105/203/38 97/202/38 108/201/38
f 115/224/39 98/212/39 105/214/39 116/225/39
f 106/215/40 118/234/40 120/205/40 107/204/40
f 119/192/41 117/191/41 116/206/41 120/205/41
f 109/218/42 115/224/42 117/191/42 110/194/42
f 118/195/43 112/198/43 114/193/43 119/192/43
f 113/188/44 111/187/44 110/194/44 114/193/44
f 104/207/45 109/218/45 111/220/45 103/208/45
f 112/221/46 100/210/46 101/189/46 113/188/46
f 98/212/3 115/224/3 109/218/3 104/207/3
f 121/235/1 122/236/1 124/237/1 123/238/1
f 123/238/2 124/237/2 128/239/2 127/240/2
f 127/240/3 128/239/3 126/241/3 125/242/3
f 125/242/4 126/241/4 122/243/4 121/244/4
f 123/245/5 127/240/5 125/242/5 121/246/5
f 128/239/6 124/247/6 122/248/6 126/241/6
f 129/249/1 130/250/1 132/251/1 131/252/1
f 131/252/2 132/251/2 136/253/2 135/254/2
f 135/254/3 136/253/3 134/255/3 133/256/3
f 133/256/4 134/255/4 130/257/4 129/258/4
f 131/259/5 135/254/5 133/256/5 129/260/5
f 136/253/6 132/261/6 130/262/6 134/255/6
f 137/263/1 138/264/1 140/265/1 139/266/1
f 139/266/2 140/265/2 144/267/2 143/268/2
f 143/268/3 144/267/3 142/269/3 141/270/3
f 141/270/4 142/269/4 138/271/4 137/272/4
f 139/273/5 143/268/5 141/270/5 137/274/5
f 144/267/6 140/275/6 138/276/6 142/269/6
f 145/277/1 146/278/1 148/279/1 147/280/1
f 147/280/2 148/279/2 152/281/2 151/282/2
f 151/282/3 152/281/3 150/283/3 149/284/3
f 149/284/4 150/283/4 146/285/4 145/286/4
f 147/287/5 151/282/5 149/284/5 145/288/5
f 152/281/6 148/289/6 146/290/6 150/283/6
