# Blender v3.0.0 OBJ File: 'meubleSalon.blend'
# www.blender.org
mtllib hote.mtl
o hot_Cube.006
v -7.289283 1.431607 6.481843
v -6.982313 2.940656 6.024433
v -7.289283 1.431607 5.135832
v -6.982313 2.940656 5.593243
v -6.244153 1.431607 6.481843
v -6.551124 2.940656 6.024433
v -6.244153 1.431607 5.135832
v -6.551124 2.940656 5.593243
v -6.982313 1.747136 6.024433
v -6.982313 1.747136 5.593243
v -6.551124 1.747136 5.593243
v -6.551124 1.747136 6.024433
vt 0.427273 0.000000
vt 0.625000 0.000000
vt 0.625000 0.250000
vt 0.427273 0.250000
vt 0.625000 0.500000
vt 0.427273 0.500000
vt 0.625000 0.750000
vt 0.427273 0.750000
vt 0.625000 1.000000
vt 0.427273 1.000000
vt 0.125000 0.500000
vt 0.375000 0.500000
vt 0.375000 0.750000
vt 0.125000 0.750000
vt 0.875000 0.500000
vt 0.875000 0.750000
vt 0.375000 1.000000
vt 0.375000 0.250000
vt 0.375000 0.000000
vn -1.0000 0.0000 0.0000
vn 0.0000 0.0000 -1.0000
vn 1.0000 0.0000 0.0000
vn 0.0000 0.0000 1.0000
vn 0.0000 -1.0000 0.0000
vn 0.0000 1.0000 0.0000
vn 0.0000 0.8232 0.5678
vn 0.7168 0.6973 0.0000
vn 0.0000 0.8232 -0.5678
vn -0.7168 0.6973 0.0000
usemtl None
s off
f 9/1/1 2/2/1 4/3/1 10/4/1
f 10/4/2 4/3/2 8/5/2 11/6/2
f 11/6/3 8/5/3 6/7/3 12/8/3
f 12/8/4 6/7/4 2/9/4 9/10/4
f 3/11/5 7/12/5 5/13/5 1/14/5
f 8/5/6 4/15/6 2/16/6 6/7/6
f 5/13/7 12/8/7 9/10/7 1/17/7
f 7/12/8 11/6/8 12/8/8 5/13/8
f 3/18/9 10/4/9 11/6/9 7/12/9
f 1/19/10 9/1/10 10/4/10 3/18/10
