# Blender v3.0.0 OBJ File: 'meubleSalon.blend'
# www.blender.org
mtllib magnette.mtl
o magnette_Cylinder.004
v -6.852737 0.150319 -6.705633
v -6.852737 0.119122 -6.702561
v -6.852737 0.089124 -6.693461
v -6.852737 0.061478 -6.678684
v -6.852737 0.037246 -6.658797
v -6.852737 0.017360 -6.634565
v -6.852737 0.002583 -6.606919
v -6.852737 -0.006517 -6.576921
v -6.852737 -0.009590 -6.545725
v -6.852737 -0.006517 -6.514528
v -6.852737 0.002583 -6.484530
v -6.852737 0.017360 -6.456884
v -6.852737 0.037246 -6.432652
v -6.852737 0.061478 -6.412766
v -6.852737 0.089124 -6.397989
v -6.852737 0.119122 -6.388889
v -6.852737 0.150319 -6.385817
v -6.852737 0.181515 -6.388889
v -6.852737 0.211513 -6.397989
v -6.852737 0.239159 -6.412766
v -6.852737 0.263391 -6.432652
v -6.852737 0.283278 -6.456884
v -6.852737 0.298055 -6.484530
v -6.852737 0.307155 -6.514528
v -6.852737 0.310227 -6.545725
v -6.852737 0.307155 -6.576921
v -6.852737 0.298055 -6.606919
v -6.852737 0.283278 -6.634565
v -6.852737 0.263391 -6.658797
v -6.852737 0.239159 -6.678684
v -6.852737 0.211513 -6.693461
v -6.852737 0.181515 -6.702561
v -6.789585 0.150319 -6.584411
v -6.813406 0.150319 -6.705633
v -6.792776 0.150319 -6.645022
v -6.801496 0.150319 -6.689393
v -6.789585 0.142772 -6.583667
v -6.813406 0.119122 -6.702561
v -6.792776 0.130947 -6.643114
v -6.801496 0.122291 -6.686632
v -6.789585 0.135514 -6.581466
v -6.813406 0.089124 -6.693461
v -6.792776 0.112319 -6.637464
v -6.801496 0.095340 -6.678457
v -6.789585 0.128826 -6.577891
v -6.813406 0.061478 -6.678684
v -6.792776 0.095152 -6.628287
v -6.801496 0.070501 -6.665180
v -6.789585 0.122964 -6.573080
v -6.813406 0.037246 -6.658797
v -6.792776 0.080105 -6.615939
v -6.801496 0.048730 -6.647313
v -6.789585 0.118153 -6.567218
v -6.813406 0.017360 -6.634565
v -6.792776 0.067756 -6.600892
v -6.801496 0.030863 -6.625542
v -6.789585 0.114578 -6.560529
v -6.813406 0.002583 -6.606919
v -6.792776 0.058580 -6.583724
v -6.801496 0.017587 -6.600704
v -6.789585 0.112376 -6.553272
v -6.813406 -0.006517 -6.576921
v -6.792776 0.052930 -6.565097
v -6.801496 0.009412 -6.573753
v -6.789585 0.111633 -6.545725
v -6.813406 -0.009590 -6.545725
v -6.792776 0.051022 -6.545725
v -6.801496 0.006651 -6.545725
v -6.789585 0.112376 -6.538177
v -6.813406 -0.006517 -6.514528
v -6.792776 0.052930 -6.526353
v -6.801496 0.009412 -6.517697
v -6.789585 0.114578 -6.530921
v -6.813406 0.002583 -6.484530
v -6.792776 0.058580 -6.507725
v -6.801496 0.017587 -6.490746
v -6.789585 0.118153 -6.524232
v -6.813406 0.017360 -6.456884
v -6.792776 0.067756 -6.490558
v -6.801496 0.030863 -6.465907
v -6.789585 0.122964 -6.518370
v -6.813406 0.037246 -6.432652
v -6.792776 0.080105 -6.475511
v -6.801496 0.048730 -6.444137
v -6.789585 0.128826 -6.513559
v -6.813406 0.061478 -6.412766
v -6.792776 0.095152 -6.463162
v -6.801496 0.070501 -6.426270
v -6.789585 0.135514 -6.509984
v -6.813406 0.089124 -6.397989
v -6.792776 0.112319 -6.453986
v -6.801496 0.095340 -6.412993
v -6.789585 0.142772 -6.507782
v -6.813406 0.119122 -6.388889
v -6.792776 0.130947 -6.448336
v -6.801496 0.122291 -6.404818
v -6.789585 0.150319 -6.507039
v -6.813406 0.150319 -6.385817
v -6.792776 0.150319 -6.446428
v -6.801496 0.150319 -6.402057
v -6.789585 0.157866 -6.507782
v -6.813406 0.181515 -6.388889
v -6.792776 0.169691 -6.448336
v -6.801496 0.178347 -6.404818
v -6.789585 0.165123 -6.509984
v -6.813406 0.211513 -6.397989
v -6.792776 0.188318 -6.453986
v -6.801496 0.205298 -6.412993
v -6.789585 0.171812 -6.513559
v -6.813406 0.239159 -6.412766
v -6.792776 0.205485 -6.463162
v -6.801496 0.230136 -6.426270
v -6.789585 0.177674 -6.518370
v -6.813406 0.263391 -6.432652
v -6.792776 0.220533 -6.475511
v -6.801496 0.251907 -6.444137
v -6.789585 0.182485 -6.524232
v -6.813406 0.283278 -6.456884
v -6.792776 0.232881 -6.490558
v -6.801496 0.269774 -6.465907
v -6.789585 0.186060 -6.530921
v -6.813406 0.298055 -6.484530
v -6.792776 0.242057 -6.507725
v -6.801496 0.283051 -6.490746
v -6.789585 0.188261 -6.538177
v -6.813406 0.307155 -6.514528
v -6.792776 0.247708 -6.526353
v -6.801496 0.291226 -6.517697
v -6.789585 0.189005 -6.545725
v -6.813406 0.310227 -6.545725
v -6.792776 0.249616 -6.545725
v -6.801496 0.293987 -6.545725
v -6.789585 0.188261 -6.553272
v -6.813406 0.307155 -6.576921
v -6.792776 0.247708 -6.565097
v -6.801496 0.291226 -6.573753
v -6.789585 0.186060 -6.560529
v -6.813406 0.298055 -6.606919
v -6.792776 0.242057 -6.583724
v -6.801496 0.283051 -6.600704
v -6.789585 0.182485 -6.567218
v -6.813406 0.283278 -6.634565
v -6.792776 0.232881 -6.600892
v -6.801496 0.269774 -6.625542
v -6.789585 0.177674 -6.573080
v -6.813406 0.263391 -6.658797
v -6.792776 0.220533 -6.615939
v -6.801496 0.251907 -6.647313
v -6.789585 0.171812 -6.577891
v -6.813406 0.239159 -6.678684
v -6.792776 0.205485 -6.628287
v -6.801496 0.230136 -6.665180
v -6.789585 0.165123 -6.581466
v -6.813406 0.211513 -6.693461
v -6.792776 0.188318 -6.637464
v -6.801496 0.205298 -6.678457
v -6.789585 0.157866 -6.583667
v -6.813406 0.181515 -6.702561
v -6.792776 0.169691 -6.643114
v -6.801496 0.178347 -6.686632
vt 0.031250 0.500000
vt 0.031250 0.811394
vt 0.000000 0.811394
vt 0.000000 0.500000
vt 0.937500 0.500000
vt 0.937500 0.811394
vt 0.906250 0.811394
vt 0.906250 0.500000
vt 0.875000 0.811394
vt 0.875000 0.500000
vt 0.843750 0.811394
vt 0.843750 0.500000
vt 0.812500 0.811394
vt 0.812500 0.500000
vt 0.781250 0.811394
vt 0.781250 0.500000
vt 0.750000 0.811394
vt 0.750000 0.500000
vt 0.718750 0.811394
vt 0.718750 0.500000
vt 0.687500 0.811394
vt 0.687500 0.500000
vt 0.656250 0.811394
vt 0.656250 0.500000
vt 0.625000 0.811394
vt 0.625000 0.500000
vt 0.593750 0.811394
vt 0.593750 0.500000
vt 0.562500 0.811394
vt 0.562500 0.500000
vt 0.531250 0.811394
vt 0.531250 0.500000
vt 0.500000 0.811394
vt 0.500000 0.500000
vt 0.468750 0.811394
vt 0.468750 0.500000
vt 0.437500 0.811394
vt 0.437500 0.500000
vt 0.406250 0.811394
vt 0.406250 0.500000
vt 0.375000 0.811394
vt 0.375000 0.500000
vt 0.343750 0.811394
vt 0.343750 0.500000
vt 0.312500 0.811394
vt 0.312500 0.500000
vt 0.281250 0.811394
vt 0.281250 0.500000
vt 0.250000 0.811394
vt 0.250000 0.500000
vt 0.218750 0.811394
vt 0.218750 0.500000
vt 0.187500 0.811394
vt 0.187500 0.500000
vt 0.156250 0.811394
vt 0.156250 0.500000
vt 0.125000 0.811394
vt 0.125000 0.500000
vt 0.093750 0.811394
vt 0.093750 0.500000
vt 0.062500 0.811394
vt 0.062500 0.500000
vt 1.000000 0.500000
vt 1.000000 0.811394
vt 0.968750 0.811394
vt 0.968750 0.500000
vt 0.750000 0.490000
vt 0.796822 0.485388
vt 0.841844 0.471731
vt 0.883337 0.449553
vt 0.919706 0.419706
vt 0.949553 0.383337
vt 0.971731 0.341844
vt 0.985388 0.296822
vt 0.990000 0.250000
vt 0.985388 0.203178
vt 0.971731 0.158156
vt 0.949553 0.116663
vt 0.919706 0.080294
vt 0.883337 0.050447
vt 0.841844 0.028269
vt 0.796822 0.014612
vt 0.750000 0.010000
vt 0.703178 0.014612
vt 0.658156 0.028269
vt 0.616663 0.050447
vt 0.580294 0.080294
vt 0.550447 0.116663
vt 0.528269 0.158156
vt 0.514612 0.203178
vt 0.510000 0.250000
vt 0.514612 0.296822
vt 0.528269 0.341844
vt 0.550447 0.383337
vt 0.580294 0.419706
vt 0.616663 0.449553
vt 0.658156 0.471731
vt 0.703178 0.485388
vt 0.998413 0.905697
vt 0.970337 0.905697
vt 0.994078 1.000000
vt 0.974672 1.000000
vt 0.279074 0.396167
vt 0.250000 0.399031
vt 0.250000 0.308062
vt 0.261327 0.306946
vt 0.967163 0.905697
vt 0.939087 0.905697
vt 0.962828 1.000000
vt 0.943422 1.000000
vt 0.307032 0.387687
vt 0.272219 0.303642
vt 0.935913 0.905697
vt 0.907837 0.905697
vt 0.931578 1.000000
vt 0.912172 1.000000
vt 0.332797 0.373915
vt 0.282258 0.298277
vt 0.904663 0.905697
vt 0.876587 0.905697
vt 0.900328 1.000000
vt 0.880922 1.000000
vt 0.355381 0.355381
vt 0.291056 0.291056
vt 0.873413 0.905697
vt 0.845337 0.905697
vt 0.869078 1.000000
vt 0.849672 1.000000
vt 0.373915 0.332797
vt 0.298277 0.282258
vt 0.842163 0.905697
vt 0.814087 0.905697
vt 0.837828 1.000000
vt 0.818422 1.000000
vt 0.387687 0.307032
vt 0.303642 0.272219
vt 0.810913 0.905697
vt 0.782837 0.905697
vt 0.806578 1.000000
vt 0.787172 1.000000
vt 0.396167 0.279075
vt 0.306946 0.261327
vt 0.779663 0.905697
vt 0.751587 0.905697
vt 0.775328 1.000000
vt 0.755922 1.000000
vt 0.399031 0.250000
vt 0.308062 0.250000
vt 0.748413 0.905697
vt 0.720337 0.905697
vt 0.744078 1.000000
vt 0.724672 1.000000
vt 0.396167 0.220925
vt 0.306946 0.238673
vt 0.717163 0.905697
vt 0.689087 0.905697
vt 0.712828 1.000000
vt 0.693422 1.000000
vt 0.387687 0.192968
vt 0.303642 0.227781
vt 0.685913 0.905697
vt 0.657837 0.905697
vt 0.681578 1.000000
vt 0.662172 1.000000
vt 0.373915 0.167203
vt 0.298277 0.217742
vt 0.654663 0.905697
vt 0.626587 0.905697
vt 0.650328 1.000000
vt 0.630922 1.000000
vt 0.355381 0.144619
vt 0.291056 0.208944
vt 0.623413 0.905697
vt 0.595337 0.905697
vt 0.619078 1.000000
vt 0.599672 1.000000
vt 0.332797 0.126085
vt 0.282257 0.201723
vt 0.592163 0.905697
vt 0.564087 0.905697
vt 0.587828 1.000000
vt 0.568422 1.000000
vt 0.307032 0.112313
vt 0.272219 0.196358
vt 0.560913 0.905697
vt 0.532837 0.905697
vt 0.556578 1.000000
vt 0.537172 1.000000
vt 0.279074 0.103833
vt 0.261327 0.193053
vt 0.529663 0.905697
vt 0.501587 0.905697
vt 0.525328 1.000000
vt 0.505922 1.000000
vt 0.250000 0.100969
vt 0.250000 0.191938
vt 0.498413 0.905697
vt 0.470337 0.905697
vt 0.494078 1.000000
vt 0.474672 1.000000
vt 0.220926 0.103833
vt 0.238673 0.193053
vt 0.467163 0.905697
vt 0.439087 0.905697
vt 0.462828 1.000000
vt 0.443422 1.000000
vt 0.192968 0.112313
vt 0.227781 0.196358
vt 0.435913 0.905697
vt 0.407837 0.905697
vt 0.431578 1.000000
vt 0.412172 1.000000
vt 0.167203 0.126085
vt 0.217742 0.201723
vt 0.404663 0.905697
vt 0.376587 0.905697
vt 0.400328 1.000000
vt 0.380922 1.000000
vt 0.144619 0.144619
vt 0.208944 0.208944
vt 0.373413 0.905697
vt 0.345337 0.905697
vt 0.369078 1.000000
vt 0.349672 1.000000
vt 0.126085 0.167203
vt 0.201723 0.217742
vt 0.342163 0.905697
vt 0.314087 0.905697
vt 0.337828 1.000000
vt 0.318422 1.000000
vt 0.112313 0.192968
vt 0.196358 0.227781
vt 0.310913 0.905697
vt 0.282837 0.905697
vt 0.306578 1.000000
vt 0.287172 1.000000
vt 0.103833 0.220926
vt 0.193054 0.238673
vt 0.279663 0.905697
vt 0.251587 0.905697
vt 0.275328 1.000000
vt 0.255922 1.000000
vt 0.100969 0.250000
vt 0.191938 0.250000
vt 0.248413 0.905697
vt 0.220337 0.905697
vt 0.244078 1.000000
vt 0.224672 1.000000
vt 0.103833 0.279075
vt 0.193054 0.261327
vt 0.217163 0.905697
vt 0.189087 0.905697
vt 0.212828 1.000000
vt 0.193422 1.000000
vt 0.112313 0.307032
vt 0.196358 0.272219
vt 0.185913 0.905697
vt 0.157837 0.905697
vt 0.181578 1.000000
vt 0.162172 1.000000
vt 0.126085 0.332797
vt 0.201723 0.282258
vt 0.154663 0.905697
vt 0.126587 0.905697
vt 0.150328 1.000000
vt 0.130922 1.000000
vt 0.144619 0.355381
vt 0.208944 0.291056
vt 0.123413 0.905697
vt 0.095337 0.905697
vt 0.119078 1.000000
vt 0.099672 1.000000
vt 0.167203 0.373915
vt 0.217742 0.298277
vt 0.092163 0.905697
vt 0.064087 0.905697
vt 0.087828 1.000000
vt 0.068422 1.000000
vt 0.192968 0.387687
vt 0.227781 0.303642
vt 0.060913 0.905697
vt 0.032837 0.905697
vt 0.056578 1.000000
vt 0.037172 1.000000
vt 0.220926 0.396167
vt 0.238673 0.306946
vt 0.029663 0.905697
vt 0.001587 0.905697
vt 0.025328 1.000000
vt 0.005922 1.000000
vn 0.0000 0.0980 -0.9952
vn -0.0000 -0.4714 -0.8819
vn -0.0000 -0.6344 -0.7730
vn 0.0000 -0.7730 -0.6344
vn 0.0000 -0.8819 -0.4714
vn 0.0000 -0.9569 -0.2903
vn 0.0000 -0.9952 -0.0980
vn 0.0000 -0.9952 0.0980
vn 0.0000 -0.9569 0.2903
vn 0.0000 -0.8819 0.4714
vn 0.0000 -0.7730 0.6344
vn -0.0000 -0.6344 0.7730
vn 0.0000 -0.4714 0.8819
vn 0.0000 -0.2903 0.9569
vn -0.0000 -0.0980 0.9952
vn -0.0000 0.0980 0.9952
vn -0.0000 0.2903 0.9569
vn 0.0000 0.4714 0.8819
vn 0.0000 0.6344 0.7730
vn 0.0000 0.7730 0.6344
vn 0.0000 0.8819 0.4714
vn 0.0000 0.9569 0.2903
vn 0.0000 0.9952 0.0980
vn 0.0000 0.9952 -0.0980
vn 0.0000 0.9569 -0.2903
vn 0.0000 0.8819 -0.4714
vn -0.0000 0.7730 -0.6344
vn 0.0000 0.6344 -0.7730
vn 0.0000 0.4714 -0.8819
vn -0.0000 0.2903 -0.9569
vn -0.0000 -0.0980 -0.9952
vn -0.0000 -0.2903 -0.9569
vn -1.0000 0.0000 0.0000
vn 0.8050 -0.0581 -0.5904
vn 0.9811 -0.0190 -0.1928
vn 0.9986 -0.0052 -0.0526
vn 0.8050 -0.1722 -0.5677
vn 0.9811 -0.0562 -0.1854
vn 0.9986 -0.0153 -0.0506
vn 0.8050 -0.2797 -0.5232
vn 0.9811 -0.0913 -0.1708
vn 0.9986 -0.0249 -0.0466
vn 0.8050 -0.3764 -0.4586
vn 0.9811 -0.1229 -0.1498
vn 0.9986 -0.0335 -0.0408
vn 0.8050 -0.4586 -0.3764
vn 0.9811 -0.1497 -0.1229
vn 0.9986 -0.0408 -0.0335
vn 0.8050 -0.5232 -0.2797
vn 0.9811 -0.1709 -0.0913
vn 0.9986 -0.0466 -0.0249
vn 0.8050 -0.5677 -0.1722
vn 0.9811 -0.1854 -0.0562
vn 0.9986 -0.0505 -0.0153
vn 0.8050 -0.5904 -0.0581
vn 0.9811 -0.1928 -0.0190
vn 0.9986 -0.0526 -0.0052
vn 0.8050 -0.5904 0.0581
vn 0.9811 -0.1928 0.0190
vn 0.9986 -0.0526 0.0052
vn 0.8050 -0.5677 0.1722
vn 0.9811 -0.1854 0.0562
vn 0.9986 -0.0506 0.0153
vn 0.8050 -0.5232 0.2797
vn 0.9811 -0.1708 0.0913
vn 0.9986 -0.0466 0.0249
vn 0.8050 -0.4586 0.3764
vn 0.9811 -0.1498 0.1229
vn 0.9986 -0.0408 0.0335
vn 0.8050 -0.3764 0.4586
vn 0.9811 -0.1229 0.1498
vn 0.9986 -0.0335 0.0408
vn 0.8050 -0.2797 0.5232
vn 0.9811 -0.0913 0.1708
vn 0.9986 -0.0249 0.0466
vn 0.8050 -0.1722 0.5677
vn 0.9811 -0.0562 0.1854
vn 0.9986 -0.0153 0.0506
vn 0.8050 -0.0581 0.5904
vn 0.9811 -0.0190 0.1928
vn 0.9986 -0.0052 0.0526
vn 0.8050 0.0581 0.5904
vn 0.9811 0.0190 0.1928
vn 0.9986 0.0052 0.0526
vn 0.8050 0.1722 0.5677
vn 0.9811 0.0562 0.1854
vn 0.9986 0.0153 0.0506
vn 0.8050 0.2797 0.5232
vn 0.9811 0.0913 0.1708
vn 0.9986 0.0249 0.0466
vn 0.8050 0.3764 0.4586
vn 0.9811 0.1229 0.1498
vn 0.9986 0.0335 0.0408
vn 0.8050 0.4586 0.3764
vn 0.9811 0.1498 0.1229
vn 0.9986 0.0408 0.0335
vn 0.8050 0.5232 0.2797
vn 0.9811 0.1709 0.0913
vn 0.9986 0.0466 0.0249
vn 0.8050 0.5677 0.1722
vn 0.9811 0.1854 0.0562
vn 0.9986 0.0506 0.0153
vn 0.8050 0.5904 0.0581
vn 0.9811 0.1928 0.0190
vn 0.9986 0.0526 0.0052
vn 0.8050 0.5904 -0.0581
vn 0.9811 0.1928 -0.0190
vn 0.9986 0.0526 -0.0052
vn 0.8050 0.5677 -0.1722
vn 0.9811 0.1854 -0.0562
vn 0.9986 0.0506 -0.0153
vn 0.8050 0.5232 -0.2797
vn 0.9811 0.1709 -0.0913
vn 0.9986 0.0466 -0.0249
vn 0.8050 0.4586 -0.3764
vn 0.9811 0.1497 -0.1229
vn 0.9986 0.0408 -0.0335
vn 0.8050 0.3764 -0.4586
vn 0.9811 0.1229 -0.1498
vn 0.9986 0.0335 -0.0408
vn 0.8050 0.2797 -0.5232
vn 0.9811 0.0913 -0.1708
vn 0.9986 0.0249 -0.0466
vn 0.8050 0.1722 -0.5677
vn 0.9811 0.0562 -0.1854
vn 0.9986 0.0153 -0.0506
vn 0.8050 0.0581 -0.5904
vn 0.9811 0.0190 -0.1928
vn 0.9986 0.0052 -0.0526
vn 1.0000 -0.0000 0.0000
usemtl None
s off
f 32/1/1 158/2/1 34/3/1 1/4/1
f 3/5/2 42/6/2 46/7/2 4/8/2
f 4/8/3 46/7/3 50/9/3 5/10/3
f 5/10/4 50/9/4 54/11/4 6/12/4
f 6/12/5 54/11/5 58/13/5 7/14/5
f 7/14/6 58/13/6 62/15/6 8/16/6
f 8/16/7 62/15/7 66/17/7 9/18/7
f 9/18/8 66/17/8 70/19/8 10/20/8
f 10/20/9 70/19/9 74/21/9 11/22/9
f 11/22/10 74/21/10 78/23/10 12/24/10
f 12/24/11 78/23/11 82/25/11 13/26/11
f 13/26/12 82/25/12 86/27/12 14/28/12
f 14/28/13 86/27/13 90/29/13 15/30/13
f 15/30/14 90/29/14 94/31/14 16/32/14
f 16/32/15 94/31/15 98/33/15 17/34/15
f 17/34/16 98/33/16 102/35/16 18/36/16
f 18/36/17 102/35/17 106/37/17 19/38/17
f 19/38/18 106/37/18 110/39/18 20/40/18
f 20/40/19 110/39/19 114/41/19 21/42/19
f 21/42/20 114/41/20 118/43/20 22/44/20
f 22/44/21 118/43/21 122/45/21 23/46/21
f 23/46/22 122/45/22 126/47/22 24/48/22
f 24/48/23 126/47/23 130/49/23 25/50/23
f 25/50/24 130/49/24 134/51/24 26/52/24
f 26/52/25 134/51/25 138/53/25 27/54/25
f 27/54/26 138/53/26 142/55/26 28/56/26
f 28/56/27 142/55/27 146/57/27 29/58/27
f 29/58/28 146/57/28 150/59/28 30/60/28
f 30/60/29 150/59/29 154/61/29 31/62/29
f 31/62/30 154/61/30 158/2/30 32/1/30
f 1/63/31 34/64/31 38/65/31 2/66/31
f 2/66/32 38/65/32 42/6/32 3/5/32
f 1/67/33 2/68/33 3/69/33 4/70/33 5/71/33 6/72/33 7/73/33 8/74/33 9/75/33 10/76/33 11/77/33 12/78/33 13/79/33 14/80/33 15/81/33 16/82/33 17/83/33 18/84/33 19/85/33 20/86/33 21/87/33 22/88/33 23/89/33 24/90/33 25/91/33 26/92/33 27/93/33 28/94/33 29/95/33 30/96/33 31/97/33 32/98/33
f 38/65/34 34/64/34 36/99/34 40/100/34
f 40/100/35 36/99/35 35/101/35 39/102/35
f 39/103/36 35/104/36 33/105/36 37/106/36
f 42/6/37 38/65/37 40/107/37 44/108/37
f 44/108/38 40/107/38 39/109/38 43/110/38
f 43/111/39 39/103/39 37/106/39 41/112/39
f 46/7/40 42/6/40 44/113/40 48/114/40
f 48/114/41 44/113/41 43/115/41 47/116/41
f 47/117/42 43/111/42 41/112/42 45/118/42
f 50/9/43 46/7/43 48/119/43 52/120/43
f 52/120/44 48/119/44 47/121/44 51/122/44
f 51/123/45 47/117/45 45/118/45 49/124/45
f 54/11/46 50/9/46 52/125/46 56/126/46
f 56/126/47 52/125/47 51/127/47 55/128/47
f 55/129/48 51/123/48 49/124/48 53/130/48
f 58/13/49 54/11/49 56/131/49 60/132/49
f 60/132/50 56/131/50 55/133/50 59/134/50
f 59/135/51 55/129/51 53/130/51 57/136/51
f 62/15/52 58/13/52 60/137/52 64/138/52
f 64/138/53 60/137/53 59/139/53 63/140/53
f 63/141/54 59/135/54 57/136/54 61/142/54
f 66/17/55 62/15/55 64/143/55 68/144/55
f 68/144/56 64/143/56 63/145/56 67/146/56
f 67/147/57 63/141/57 61/142/57 65/148/57
f 70/19/58 66/17/58 68/149/58 72/150/58
f 72/150/59 68/149/59 67/151/59 71/152/59
f 71/153/60 67/147/60 65/148/60 69/154/60
f 74/21/61 70/19/61 72/155/61 76/156/61
f 76/156/62 72/155/62 71/157/62 75/158/62
f 75/159/63 71/153/63 69/154/63 73/160/63
f 78/23/64 74/21/64 76/161/64 80/162/64
f 80/162/65 76/161/65 75/163/65 79/164/65
f 79/165/66 75/159/66 73/160/66 77/166/66
f 82/25/67 78/23/67 80/167/67 84/168/67
f 84/168/68 80/167/68 79/169/68 83/170/68
f 83/171/69 79/165/69 77/166/69 81/172/69
f 86/27/70 82/25/70 84/173/70 88/174/70
f 88/174/71 84/173/71 83/175/71 87/176/71
f 87/177/72 83/171/72 81/172/72 85/178/72
f 90/29/73 86/27/73 88/179/73 92/180/73
f 92/180/74 88/179/74 87/181/74 91/182/74
f 91/183/75 87/177/75 85/178/75 89/184/75
f 94/31/76 90/29/76 92/185/76 96/186/76
f 96/186/77 92/185/77 91/187/77 95/188/77
f 95/189/78 91/183/78 89/184/78 93/190/78
f 98/33/79 94/31/79 96/191/79 100/192/79
f 100/192/80 96/191/80 95/193/80 99/194/80
f 99/195/81 95/189/81 93/190/81 97/196/81
f 102/35/82 98/33/82 100/197/82 104/198/82
f 104/198/83 100/197/83 99/199/83 103/200/83
f 103/201/84 99/195/84 97/196/84 101/202/84
f 106/37/85 102/35/85 104/203/85 108/204/85
f 108/204/86 104/203/86 103/205/86 107/206/86
f 107/207/87 103/201/87 101/202/87 105/208/87
f 110/39/88 106/37/88 108/209/88 112/210/88
f 112/210/89 108/209/89 107/211/89 111/212/89
f 111/213/90 107/207/90 105/208/90 109/214/90
f 114/41/91 110/39/91 112/215/91 116/216/91
f 116/216/92 112/215/92 111/217/92 115/218/92
f 115/219/93 111/213/93 109/214/93 113/220/93
f 118/43/94 114/41/94 116/221/94 120/222/94
f 120/222/95 116/221/95 115/223/95 119/224/95
f 119/225/96 115/219/96 113/220/96 117/226/96
f 122/45/97 118/43/97 120/227/97 124/228/97
f 124/228/98 120/227/98 119/229/98 123/230/98
f 123/231/99 119/225/99 117/226/99 121/232/99
f 126/47/100 122/45/100 124/233/100 128/234/100
f 128/234/101 124/233/101 123/235/101 127/236/101
f 127/237/102 123/231/102 121/232/102 125/238/102
f 130/49/103 126/47/103 128/239/103 132/240/103
f 132/240/104 128/239/104 127/241/104 131/242/104
f 131/243/105 127/237/105 125/238/105 129/244/105
f 134/51/106 130/49/106 132/245/106 136/246/106
f 136/246/107 132/245/107 131/247/107 135/248/107
f 135/249/108 131/243/108 129/244/108 133/250/108
f 138/53/109 134/51/109 136/251/109 140/252/109
f 140/252/110 136/251/110 135/253/110 139/254/110
f 139/255/111 135/249/111 133/250/111 137/256/111
f 142/55/112 138/53/112 140/257/112 144/258/112
f 144/258/113 140/257/113 139/259/113 143/260/113
f 143/261/114 139/255/114 137/256/114 141/262/114
f 146/57/115 142/55/115 144/263/115 148/264/115
f 148/264/116 144/263/116 143/265/116 147/266/116
f 147/267/117 143/261/117 141/262/117 145/268/117
f 150/59/118 146/57/118 148/269/118 152/270/118
f 152/270/119 148/269/119 147/271/119 151/272/119
f 151/273/120 147/267/120 145/268/120 149/274/120
f 154/61/121 150/59/121 152/275/121 156/276/121
f 156/276/122 152/275/122 151/277/122 155/278/122
f 155/279/123 151/273/123 149/274/123 153/280/123
f 158/2/124 154/61/124 156/281/124 160/282/124
f 160/282/125 156/281/125 155/283/125 159/284/125
f 159/285/126 155/279/126 153/280/126 157/286/126
f 34/3/127 158/2/127 160/287/127 36/288/127
f 36/288/128 160/287/128 159/289/128 35/290/128
f 35/104/129 159/285/129 157/286/129 33/105/129
f 37/106/130 33/105/130 157/286/130 153/280/130 149/274/130 145/268/130 141/262/130 137/256/130 133/250/130 129/244/130 125/238/130 121/232/130 117/226/130 113/220/130 109/214/130 105/208/130 101/202/130 97/196/130 93/190/130 89/184/130 85/178/130 81/172/130 77/166/130 73/160/130 69/154/130 65/148/130 61/142/130 57/136/130 53/130/130 49/124/130 45/118/130 41/112/130
