# Blender v3.0.0 OBJ File: 'meubleSalon.blend'
# www.blender.org
mtllib placard.mtl
o placard_Cube.002
v -5.717017 -0.026489 11.872180
v -5.717017 1.973511 11.872180
v -5.717017 -0.026489 11.220000
v -5.717017 1.973511 11.220000
v -5.814551 -0.026489 11.872180
v -5.814551 1.973511 11.872180
v -5.814551 -0.026489 11.220000
v -5.814551 1.973511 11.220000
v -5.717017 -0.026489 12.537595
v -5.717017 1.973511 12.537595
v -5.717017 -0.026489 11.885415
v -5.717017 1.973511 11.885415
v -5.814551 -0.026489 12.537595
v -5.814551 1.973511 12.537595
v -5.814551 -0.026489 11.885415
v -5.814551 1.973511 11.885415
v -5.803036 0.828398 11.843792
v -5.803036 1.081018 11.843792
v -5.803036 0.828398 11.783853
v -5.803036 1.081018 11.783853
v -5.688615 0.828398 11.843792
v -5.688615 1.081018 11.843792
v -5.688615 0.828398 11.783853
v -5.688615 1.081018 11.783853
v -5.803036 0.828398 11.960830
v -5.803036 1.081018 11.960830
v -5.803036 0.828398 11.900889
v -5.803036 1.081018 11.900889
v -5.688615 0.828398 11.960830
v -5.688615 1.081018 11.960830
v -5.688615 0.828398 11.900889
v -5.688615 1.081018 11.900889
v -5.927913 -0.651861 12.530590
v -5.927913 -0.159651 12.530590
v -5.927913 -0.651861 11.206951
v -5.927913 -0.159651 11.206951
v -5.710005 -0.651861 12.530590
v -5.710005 -0.159651 12.530590
v -5.710005 -0.651861 11.206951
v -5.710005 -0.159651 11.206951
v -5.793840 -0.286548 11.982262
v -5.793840 -0.243642 11.982262
v -5.793840 -0.286548 11.755280
v -5.793840 -0.243642 11.755280
v -5.683202 -0.286548 11.982262
v -5.683202 -0.243642 11.982262
v -5.683202 -0.286548 11.755280
v -5.683202 -0.243642 11.755280
v -7.363509 -0.777869 12.528710
v -7.363509 -0.731304 12.551126
v -7.390285 -0.731304 12.528710
v -7.363509 2.010553 12.551126
v -7.363509 2.057117 12.528710
v -7.390285 2.010553 12.528710
v -7.363509 -0.777869 11.208831
v -7.390285 -0.731304 11.208831
v -7.363509 -0.731304 11.186416
v -7.363509 2.057117 11.208831
v -7.363509 2.010553 11.186416
v -7.390285 2.010553 11.208831
v -5.786868 -0.777869 12.528710
v -5.760092 -0.731304 12.528710
v -5.786868 -0.731304 12.551126
v -5.786868 2.057117 12.528710
v -5.786868 2.010553 12.551126
v -5.760092 2.010553 12.528710
v -5.786868 -0.777869 11.208831
v -5.786868 -0.731304 11.186416
v -5.760092 -0.731304 11.208831
v -5.786868 2.057117 11.208831
v -5.760092 2.010553 11.208831
v -5.786868 2.010553 11.186416
vt 0.379106 0.754106
vt 0.620894 0.754106
vt 0.620894 0.995894
vt 0.379106 0.995894
vt 0.379106 0.504106
vt 0.620894 0.504106
vt 0.620894 0.745894
vt 0.379106 0.745894
vt 0.629106 0.504106
vt 0.870894 0.504106
vt 0.870894 0.745894
vt 0.629106 0.745894
vt 0.379106 0.004106
vt 0.620894 0.004106
vt 0.620894 0.245894
vt 0.379106 0.245894
vt 0.379106 0.254106
vt 0.620894 0.254106
vt 0.620894 0.495894
vt 0.379106 0.495894
vt 0.375000 0.000000
vt 0.625000 0.000000
vt 0.625000 0.250000
vt 0.375000 0.250000
vt 0.625000 0.500000
vt 0.375000 0.500000
vt 0.625000 0.750000
vt 0.375000 0.750000
vt 0.625000 1.000000
vt 0.375000 1.000000
vt 0.125000 0.500000
vt 0.125000 0.750000
vt 0.875000 0.500000
vt 0.875000 0.750000
vt 0.375000 0.000000
vt 0.625000 0.000000
vt 0.625000 0.250000
vt 0.375000 0.250000
vt 0.625000 0.500000
vt 0.375000 0.500000
vt 0.625000 0.750000
vt 0.375000 0.750000
vt 0.625000 1.000000
vt 0.375000 1.000000
vt 0.125000 0.500000
vt 0.125000 0.750000
vt 0.875000 0.500000
vt 0.875000 0.750000
vt 0.375000 0.000000
vt 0.625000 0.000000
vt 0.625000 0.250000
vt 0.375000 0.250000
vt 0.625000 0.500000
vt 0.375000 0.500000
vt 0.625000 0.750000
vt 0.375000 0.750000
vt 0.625000 1.000000
vt 0.375000 1.000000
vt 0.125000 0.500000
vt 0.125000 0.750000
vt 0.875000 0.500000
vt 0.875000 0.750000
vt 0.375000 0.000000
vt 0.625000 0.000000
vt 0.625000 0.250000
vt 0.375000 0.250000
vt 0.625000 0.500000
vt 0.375000 0.500000
vt 0.625000 0.750000
vt 0.375000 0.750000
vt 0.625000 1.000000
vt 0.375000 1.000000
vt 0.125000 0.500000
vt 0.125000 0.750000
vt 0.875000 0.500000
vt 0.875000 0.750000
vt 0.375000 0.000000
vt 0.625000 0.000000
vt 0.625000 0.250000
vt 0.375000 0.250000
vt 0.625000 0.500000
vt 0.375000 0.500000
vt 0.625000 0.750000
vt 0.375000 0.750000
vt 0.625000 1.000000
vt 0.375000 1.000000
vt 0.125000 0.500000
vt 0.125000 0.750000
vt 0.875000 0.500000
vt 0.875000 0.750000
vt 0.375000 0.000000
vt 0.625000 0.000000
vt 0.625000 0.250000
vt 0.375000 0.250000
vt 0.625000 0.500000
vt 0.375000 0.500000
vt 0.625000 0.750000
vt 0.375000 0.750000
vt 0.625000 1.000000
vt 0.375000 1.000000
vt 0.125000 0.500000
vt 0.125000 0.750000
vt 0.875000 0.500000
vt 0.875000 0.750000
vt 0.129106 0.745894
vt 0.129106 0.750000
vt 0.125000 0.745894
vt 0.625000 0.995894
vt 0.620894 1.000000
vt 0.129106 0.504106
vt 0.125000 0.504106
vt 0.129106 0.500000
vt 0.625000 0.254106
vt 0.625000 0.254106
vt 0.620894 0.250000
vt 0.370894 0.745894
vt 0.375000 0.745894
vt 0.370894 0.750000
vt 0.625000 0.754106
vt 0.625000 0.754106
vt 0.620894 0.750000
vt 0.370894 0.504106
vt 0.370894 0.500000
vt 0.375000 0.504106
vt 0.625000 0.504106
vt 0.625000 0.504106
vt 0.620894 0.500000
vt 0.379106 0.000000
vt 0.620894 0.000000
vt 0.625000 0.004106
vt 0.625000 0.245894
vt 0.625000 0.495894
vn 0.0000 0.0000 1.0000
vn 1.0000 0.0000 0.0000
vn 0.0000 1.0000 0.0000
vn -1.0000 0.0000 0.0000
vn 0.0000 0.0000 -1.0000
vn 0.0000 -1.0000 0.0000
vn -0.6022 -0.3463 0.7193
vn -0.6022 0.3463 0.7193
vn -0.6022 -0.3463 -0.7194
vn -0.6022 0.3463 -0.7193
vn 0.6022 -0.3463 0.7193
vn 0.6022 0.3463 0.7193
vn 0.6022 -0.3463 -0.7194
vn 0.6022 0.3463 -0.7193
vn -0.8669 -0.4985 0.0000
vn -0.6419 0.0000 0.7668
vn -0.8669 0.4985 0.0000
vn -0.6419 0.0000 -0.7668
vn 0.0000 -0.4337 -0.9010
vn 0.0000 0.4337 -0.9010
vn 0.6419 0.0000 -0.7668
vn 0.8669 -0.4985 0.0000
vn 0.8669 0.4985 0.0000
vn 0.6419 0.0000 0.7668
vn 0.0000 -0.4337 0.9010
vn 0.0000 0.4337 0.9010
usemtl None
s off
f 63/1/1 65/2/1 52/3/1 50/4/1
f 69/5/2 71/6/2 66/7/2 62/8/2
f 70/9/3 58/10/3 53/11/3 64/12/3
f 51/13/4 54/14/4 60/15/4 56/16/4
f 57/17/5 59/18/5 72/19/5 68/20/5
f 1/21/4 2/22/4 4/23/4 3/24/4
f 3/24/1 4/23/1 8/25/1 7/26/1
f 7/26/2 8/25/2 6/27/2 5/28/2
f 5/28/5 6/27/5 2/29/5 1/30/5
f 3/31/3 7/26/3 5/28/3 1/32/3
f 8/25/6 4/33/6 2/34/6 6/27/6
f 9/35/4 10/36/4 12/37/4 11/38/4
f 11/38/1 12/37/1 16/39/1 15/40/1
f 15/40/2 16/39/2 14/41/2 13/42/2
f 13/42/5 14/41/5 10/43/5 9/44/5
f 11/45/3 15/40/3 13/42/3 9/46/3
f 16/39/6 12/47/6 10/48/6 14/41/6
f 17/49/4 18/50/4 20/51/4 19/52/4
f 19/52/5 20/51/5 24/53/5 23/54/5
f 23/54/2 24/53/2 22/55/2 21/56/2
f 21/56/1 22/55/1 18/57/1 17/58/1
f 19/59/6 23/54/6 21/56/6 17/60/6
f 24/53/3 20/61/3 18/62/3 22/55/3
f 25/63/4 26/64/4 28/65/4 27/66/4
f 27/66/5 28/65/5 32/67/5 31/68/5
f 31/68/2 32/67/2 30/69/2 29/70/2
f 29/70/1 30/69/1 26/71/1 25/72/1
f 27/73/6 31/68/6 29/70/6 25/74/6
f 32/67/3 28/75/3 26/76/3 30/69/3
f 33/77/4 34/78/4 36/79/4 35/80/4
f 35/80/5 36/79/5 40/81/5 39/82/5
f 39/82/2 40/81/2 38/83/2 37/84/2
f 37/84/1 38/83/1 34/85/1 33/86/1
f 35/87/6 39/82/6 37/84/6 33/88/6
f 40/81/3 36/89/3 34/90/3 38/83/3
f 41/91/4 42/92/4 44/93/4 43/94/4
f 43/94/5 44/93/5 48/95/5 47/96/5
f 47/96/2 48/95/2 46/97/2 45/98/2
f 45/98/1 46/97/1 42/99/1 41/100/1
f 43/101/6 47/96/6 45/98/6 41/102/6
f 48/95/3 44/103/3 42/104/3 46/97/3
f 49/105/7 50/106/7 51/107/7
f 52/3/8 53/108/8 54/109/8
f 55/110/9 56/111/9 57/112/9
f 58/113/10 59/114/10 60/115/10
f 61/116/11 62/117/11 63/118/11
f 64/119/12 65/120/12 66/121/12
f 67/122/13 68/123/13 69/124/13
f 70/125/14 71/126/14 72/127/14
f 55/110/15 49/105/15 51/107/15 56/111/15
f 50/128/16 52/129/16 54/14/16 51/13/16
f 53/130/17 58/131/17 60/15/17 54/14/17
f 59/18/18 57/17/18 56/16/18 60/15/18
f 67/122/19 55/110/19 57/112/19 68/123/19
f 58/113/20 70/132/20 72/19/20 59/18/20
f 71/6/21 69/5/21 68/20/21 72/19/21
f 61/116/22 67/122/22 69/5/22 62/8/22
f 70/9/23 64/12/23 66/7/23 71/6/23
f 65/2/24 63/1/24 62/8/24 66/7/24
f 49/105/25 61/116/25 63/118/25 50/106/25
f 64/119/26 53/108/26 52/3/26 65/2/26
f 55/110/6 67/122/6 61/116/6 49/105/6
