# Blender v3.0.0 OBJ File: 'salon.blend'
# www.blender.org
mtllib tableBasse.mtl
o Cube.003_Cube.004
v -1.403232 0.969608 -3.333841
v -1.403232 -0.032549 -3.333841
v -1.403232 0.969608 -3.232838
v -1.403232 -0.032549 -3.232838
v -1.527193 0.969608 -3.333841
v -1.527193 -0.032549 -3.333841
v -1.527193 0.969608 -3.232838
v -1.527193 -0.032549 -3.232838
v -2.921389 0.943853 -3.390876
v -2.921389 0.988392 -3.032754
v -3.279511 0.988392 -3.390876
v -2.921389 0.956898 -3.137645
v -3.128151 0.962677 -3.184114
v -3.174620 0.988392 -3.137645
v -3.174620 0.956898 -3.390876
v -2.921389 1.148049 -3.032754
v -2.921389 1.192587 -3.390876
v -3.279511 1.148049 -3.390876
v -2.921389 1.179542 -3.137645
v -3.128151 1.173763 -3.184114
v -3.174620 1.179542 -3.390876
v -3.174620 1.148049 -3.137645
v -2.921389 0.943853 -4.674632
v -3.279511 0.988392 -4.674632
v -2.921389 0.988392 -5.032754
v -3.174620 0.956898 -4.674632
v -3.128151 0.962677 -4.881394
v -3.174620 0.988392 -4.927863
v -2.921389 0.956898 -4.927863
v -2.921389 1.192587 -4.674632
v -2.921389 1.148049 -5.032754
v -3.279511 1.148049 -4.674632
v -2.921389 1.179542 -4.927863
v -3.128151 1.173763 -4.881394
v -3.174620 1.148049 -4.927863
v -3.174620 1.179542 -4.674632
v -1.637633 0.943853 -3.390876
v -1.279511 0.988392 -3.390876
v -1.637633 0.988392 -3.032754
v -1.384402 0.956898 -3.390876
v -1.430871 0.962677 -3.184114
v -1.384402 0.988392 -3.137645
v -1.637633 0.956898 -3.137645
v -1.637633 1.192587 -3.390876
v -1.637633 1.148049 -3.032754
v -1.279511 1.148049 -3.390876
v -1.637633 1.179542 -3.137645
v -1.430871 1.173763 -3.184114
v -1.384402 1.148049 -3.137645
v -1.384402 1.179542 -3.390876
v -1.637633 0.943853 -4.674632
v -1.637633 0.988392 -5.032754
v -1.279511 0.988392 -4.674632
v -1.637633 0.956898 -4.927863
v -1.430871 0.962677 -4.881394
v -1.384402 0.988392 -4.927863
v -1.384402 0.956898 -4.674632
v -1.637633 1.192587 -4.674632
v -1.279511 1.148049 -4.674632
v -1.637633 1.148049 -5.032754
v -1.384402 1.179542 -4.674632
v -1.430871 1.173763 -4.881394
v -1.384402 1.148049 -4.927863
v -1.637633 1.179542 -4.927863
v -3.011165 0.969608 -3.333841
v -3.011165 -0.032549 -3.333841
v -3.011165 0.969608 -3.232838
v -3.011165 -0.032549 -3.232838
v -3.135126 0.969608 -3.333841
v -3.135126 -0.032549 -3.333841
v -3.135126 0.969608 -3.232838
v -3.135126 -0.032549 -3.232838
v -1.403232 0.969608 -4.854268
v -1.403232 -0.032549 -4.854268
v -1.403232 0.969608 -4.753265
v -1.403232 -0.032549 -4.753265
v -1.527193 0.969608 -4.854268
v -1.527193 -0.032549 -4.854268
v -1.527193 0.969608 -4.753265
v -1.527193 -0.032549 -4.753265
v -3.011165 0.969608 -4.854268
v -3.011165 -0.032549 -4.854268
v -3.011165 0.969608 -4.753265
v -3.011165 -0.032549 -4.753265
v -3.135126 0.969608 -4.854268
v -3.135126 -0.032549 -4.854268
v -3.135126 0.969608 -4.753265
v -3.135126 -0.032549 -4.753265
vt 0.419765 0.794765
vt 0.580235 0.794765
vt 0.580235 0.955235
vt 0.419765 0.955235
vt 0.419765 0.544765
vt 0.580235 0.544765
vt 0.580235 0.705235
vt 0.419765 0.705235
vt 0.375000 0.000000
vt 0.625000 0.000000
vt 0.625000 0.250000
vt 0.375000 0.250000
vt 0.669765 0.544765
vt 0.830235 0.544765
vt 0.830235 0.705235
vt 0.669765 0.705235
vt 0.419765 0.044765
vt 0.580235 0.044765
vt 0.580235 0.205235
vt 0.419765 0.205235
vt 0.419765 0.294765
vt 0.580235 0.294765
vt 0.580235 0.455235
vt 0.419765 0.455235
vt 0.169765 0.705235
vt 0.169765 0.750000
vt 0.143920 0.750000
vt 0.125000 0.705235
vt 0.419765 1.000000
vt 0.393920 1.000000
vt 0.375000 0.955235
vt 0.375000 0.044765
vt 0.375000 0.018920
vt 0.419765 0.000000
vt 0.625000 0.955235
vt 0.625000 0.981080
vt 0.580235 1.000000
vt 0.875000 0.705235
vt 0.875000 0.731080
vt 0.830235 0.750000
vt 0.580235 0.000000
vt 0.606080 0.000000
vt 0.625000 0.044765
vt 0.169765 0.544765
vt 0.125000 0.544765
vt 0.125000 0.518920
vt 0.169765 0.500000
vt 0.419765 0.250000
vt 0.393920 0.250000
vt 0.375000 0.205235
vt 0.375000 0.294765
vt 0.375000 0.268920
vt 0.830235 0.500000
vt 0.856080 0.500000
vt 0.875000 0.544765
vt 0.580235 0.250000
vt 0.606080 0.250000
vt 0.625000 0.294765
vt 0.625000 0.205235
vt 0.625000 0.231080
vt 0.330235 0.705235
vt 0.375000 0.705235
vt 0.381307 0.750000
vt 0.330235 0.750000
vt 0.419765 0.750000
vt 0.375000 0.794765
vt 0.669765 0.750000
vt 0.625000 0.743693
vt 0.625000 0.705235
vt 0.580235 0.750000
vt 0.625000 0.794765
vt 0.330235 0.544765
vt 0.330235 0.500000
vt 0.375000 0.506307
vt 0.375000 0.544765
vt 0.419765 0.500000
vt 0.375000 0.455235
vt 0.625000 0.544765
vt 0.618693 0.500000
vt 0.669765 0.500000
vt 0.580235 0.500000
vt 0.625000 0.455235
vt 0.625000 0.500000
vt 0.375000 0.500000
vt 0.625000 0.750000
vt 0.375000 0.750000
vt 0.625000 1.000000
vt 0.375000 1.000000
vt 0.125000 0.500000
vt 0.125000 0.750000
vt 0.875000 0.500000
vt 0.875000 0.750000
vt 0.375000 0.000000
vt 0.625000 0.000000
vt 0.625000 0.250000
vt 0.375000 0.250000
vt 0.625000 0.500000
vt 0.375000 0.500000
vt 0.625000 0.750000
vt 0.375000 0.750000
vt 0.625000 1.000000
vt 0.375000 1.000000
vt 0.125000 0.500000
vt 0.125000 0.750000
vt 0.875000 0.500000
vt 0.875000 0.750000
vt 0.375000 0.000000
vt 0.625000 0.000000
vt 0.625000 0.250000
vt 0.375000 0.250000
vt 0.625000 0.500000
vt 0.375000 0.500000
vt 0.625000 0.750000
vt 0.375000 0.750000
vt 0.625000 1.000000
vt 0.375000 1.000000
vt 0.125000 0.500000
vt 0.125000 0.750000
vt 0.875000 0.500000
vt 0.875000 0.750000
vt 0.375000 0.000000
vt 0.625000 0.000000
vt 0.625000 0.250000
vt 0.375000 0.250000
vt 0.625000 0.500000
vt 0.375000 0.500000
vt 0.625000 0.750000
vt 0.375000 0.750000
vt 0.625000 1.000000
vt 0.375000 1.000000
vt 0.125000 0.500000
vt 0.125000 0.750000
vt 0.875000 0.500000
vt 0.875000 0.750000
vn 0.0000 0.0000 1.0000
vn 1.0000 0.0000 0.0000
vn -1.0000 0.0000 0.0000
vn 0.0000 1.0000 0.0000
vn 0.0000 0.0000 -1.0000
vn -0.0454 -0.9979 0.0454
vn -0.1169 -0.9403 0.3195
vn -0.3195 -0.9403 0.1169
vn -0.1169 0.9403 0.3195
vn -0.0454 0.9979 0.0454
vn -0.3195 0.9403 0.1169
vn -0.0454 -0.9979 -0.0454
vn -0.3195 -0.9403 -0.1169
vn -0.1169 -0.9403 -0.3195
vn -0.0454 0.9979 -0.0454
vn -0.1169 0.9403 -0.3195
vn -0.3195 0.9403 -0.1169
vn 0.0454 -0.9979 0.0454
vn 0.3195 -0.9403 0.1169
vn 0.1169 -0.9403 0.3195
vn 0.0454 0.9979 0.0454
vn 0.1169 0.9403 0.3195
vn 0.3195 0.9403 0.1169
vn 0.0454 -0.9979 -0.0454
vn 0.1169 -0.9403 -0.3195
vn 0.3195 -0.9403 -0.1169
vn 0.0454 0.9979 -0.0454
vn 0.3195 0.9403 -0.1169
vn 0.1169 0.9403 -0.3195
vn -0.0514 -0.9987 0.0000
vn -0.2876 -0.9578 0.0000
vn -0.3827 0.0000 0.9239
vn -0.9239 0.0000 0.3827
vn -0.0514 0.9987 0.0000
vn -0.2876 0.9578 0.0000
vn -0.3827 0.0000 -0.9239
vn -0.9239 0.0000 -0.3827
vn 0.0000 -0.9987 -0.0514
vn 0.0000 -0.9578 -0.2876
vn 0.0000 0.9987 -0.0514
vn 0.0000 0.9578 -0.2876
vn 0.9239 0.0000 -0.3827
vn 0.3827 0.0000 -0.9239
vn 0.0514 -0.9987 0.0000
vn 0.2876 -0.9578 0.0000
vn 0.0514 0.9987 0.0000
vn 0.2876 0.9578 0.0000
vn 0.3827 0.0000 0.9239
vn 0.9239 0.0000 0.3827
vn 0.0000 -0.9987 0.0514
vn 0.0000 -0.9578 0.2876
vn 0.0000 0.9987 0.0514
vn 0.0000 0.9578 0.2876
vn 0.0000 -1.0000 0.0000
usemtl None
s off
f 39/1/1 45/2/1 16/3/1 10/4/1
f 53/5/2 59/6/2 46/7/2 38/8/2
f 8/9/3 7/10/3 5/11/3 6/12/3
f 58/13/4 30/14/4 17/15/4 44/16/4
f 11/17/3 18/18/3 32/19/3 24/20/3
f 25/21/5 31/22/5 60/23/5 52/24/5
f 9/25/6 12/26/6 13/27/6 15/28/6
f 10/4/7 14/29/7 13/30/7 12/31/7
f 11/17/8 15/32/8 13/33/8 14/34/8
f 16/3/9 19/35/9 20/36/9 22/37/9
f 17/15/10 21/38/10 20/39/10 19/40/10
f 18/18/11 22/41/11 20/42/11 21/43/11
f 23/44/12 26/45/12 27/46/12 29/47/12
f 24/20/13 28/48/13 27/49/13 26/50/13
f 25/21/14 29/51/14 27/52/14 28/48/14
f 30/14/15 33/53/15 34/54/15 36/55/15
f 31/22/16 35/56/16 34/57/16 33/58/16
f 32/19/17 36/59/17 34/60/17 35/56/17
f 37/61/18 40/62/18 41/63/18 43/64/18
f 38/8/19 42/65/19 41/63/19 40/62/19
f 39/1/20 43/66/20 41/63/20 42/65/20
f 44/16/21 47/67/21 48/68/21 50/69/21
f 45/2/22 49/70/22 48/68/22 47/71/22
f 46/7/23 50/69/23 48/68/23 49/70/23
f 51/72/24 54/73/24 55/74/24 57/75/24
f 52/24/25 56/76/25 55/74/25 54/77/25
f 53/5/26 57/75/26 55/74/26 56/76/26
f 58/13/27 61/78/27 62/79/27 64/80/27
f 59/6/28 63/81/28 62/79/28 61/78/28
f 60/23/29 64/82/29 62/79/29 63/81/29
f 23/44/30 9/25/30 15/28/30 26/45/30
f 26/50/31 15/32/31 11/17/31 24/20/31
f 10/4/32 16/3/32 22/37/32 14/29/32
f 14/34/33 22/41/33 18/18/33 11/17/33
f 17/15/34 30/14/34 36/55/34 21/38/34
f 21/43/35 36/59/35 32/19/35 18/18/35
f 31/22/36 25/21/36 28/48/36 35/56/36
f 35/56/37 28/48/37 24/20/37 32/19/37
f 51/72/38 23/44/38 29/47/38 54/73/38
f 54/77/39 29/51/39 25/21/39 52/24/39
f 30/14/40 58/13/40 64/80/40 33/53/40
f 33/58/41 64/82/41 60/23/41 31/22/41
f 59/6/42 53/5/42 56/76/42 63/81/42
f 63/81/43 56/76/43 52/24/43 60/23/43
f 37/61/44 51/72/44 57/75/44 40/62/44
f 40/62/45 57/75/45 53/5/45 38/8/45
f 58/13/46 44/16/46 50/69/46 61/78/46
f 61/78/47 50/69/47 46/7/47 59/6/47
f 45/2/48 39/1/48 42/65/48 49/70/48
f 49/70/49 42/65/49 38/8/49 46/7/49
f 9/25/50 37/61/50 43/64/50 12/26/50
f 12/31/51 43/66/51 39/1/51 10/4/51
f 44/16/52 17/15/52 19/40/52 47/67/52
f 47/71/53 19/35/53 16/3/53 45/2/53
f 23/44/54 51/72/54 37/61/54 9/25/54
f 6/12/5 5/11/5 1/83/5 2/84/5
f 2/84/2 1/83/2 3/85/2 4/86/2
f 4/86/1 3/85/1 7/87/1 8/88/1
f 6/89/54 2/84/54 4/86/54 8/90/54
f 1/83/4 5/91/4 7/92/4 3/85/4
f 72/93/3 71/94/3 69/95/3 70/96/3
f 70/96/5 69/95/5 65/97/5 66/98/5
f 66/98/2 65/97/2 67/99/2 68/100/2
f 68/100/1 67/99/1 71/101/1 72/102/1
f 70/103/54 66/98/54 68/100/54 72/104/54
f 65/97/4 69/105/4 71/106/4 67/99/4
f 80/107/3 79/108/3 77/109/3 78/110/3
f 78/110/5 77/109/5 73/111/5 74/112/5
f 74/112/2 73/111/2 75/113/2 76/114/2
f 76/114/1 75/113/1 79/115/1 80/116/1
f 78/117/54 74/112/54 76/114/54 80/118/54
f 73/111/4 77/119/4 79/120/4 75/113/4
f 88/121/3 87/122/3 85/123/3 86/124/3
f 86/124/5 85/123/5 81/125/5 82/126/5
f 82/126/2 81/125/2 83/127/2 84/128/2
f 84/128/1 83/127/1 87/129/1 88/130/1
f 86/131/54 82/126/54 84/128/54 88/132/54
f 81/125/4 85/133/4 87/134/4 83/127/4
