# Blender v3.0.0 OBJ File: 'chambrant.blend'
# www.blender.org
mtllib chambrant.mtl
o chambrant_Cube.002
v -1.002224 -0.057064 0.147714
v -1.002224 0.024358 0.153508
v -1.041539 0.024358 0.147714
v -1.002224 -0.046186 0.150607
v -1.021856 -0.046186 0.147714
v -1.021025 -0.035620 0.150485
v -1.021856 0.024358 0.152734
v -1.002224 -0.016299 0.152734
v -1.021025 -0.014579 0.151982
v -1.036286 -0.016299 0.147714
v -1.036286 0.024358 0.150607
v -1.031185 -0.014579 0.150485
v -1.002224 4.175642 0.153508
v -1.002224 4.257064 0.147714
v -1.041539 4.175642 0.147714
v -1.002224 4.216300 0.152734
v -1.021856 4.175642 0.152734
v -1.021025 4.214579 0.151982
v -1.021856 4.246186 0.147714
v -1.002224 4.246186 0.150607
v -1.021025 4.235620 0.150485
v -1.036286 4.175642 0.150607
v -1.036286 4.216300 0.147714
v -1.031185 4.214579 0.150485
v -1.002224 -0.057064 -0.147714
v -1.041539 0.024358 -0.147714
v -1.002224 0.024358 -0.153508
v -1.021856 -0.046186 -0.147714
v -1.002224 -0.046186 -0.150607
v -1.021025 -0.035620 -0.150485
v -1.036286 0.024358 -0.150607
v -1.036286 -0.016299 -0.147714
v -1.031185 -0.014579 -0.150485
v -1.002224 -0.016299 -0.152734
v -1.021856 0.024358 -0.152734
v -1.021025 -0.014579 -0.151982
v -1.002224 4.257064 -0.147714
v -1.002224 4.175642 -0.153508
v -1.041539 4.175642 -0.147714
v -1.002224 4.246186 -0.150607
v -1.021856 4.246186 -0.147714
v -1.021025 4.235620 -0.150485
v -1.021856 4.175642 -0.152734
v -1.002224 4.216300 -0.152734
v -1.021025 4.214579 -0.151982
v -1.036286 4.216300 -0.147714
v -1.036286 4.175642 -0.150607
v -1.031185 4.214579 -0.150485
v 1.002224 -0.057064 0.147714
v 1.041539 0.024358 0.147714
v 1.002224 0.024358 0.153508
v 1.021856 -0.046186 0.147714
v 1.002224 -0.046186 0.150607
v 1.021025 -0.035620 0.150485
v 1.036286 0.024358 0.150607
v 1.036286 -0.016299 0.147714
v 1.031185 -0.014579 0.150485
v 1.002224 -0.016299 0.152734
v 1.021856 0.024358 0.152734
v 1.021025 -0.014579 0.151982
v 1.002224 4.257064 0.147714
v 1.002224 4.175642 0.153508
v 1.041539 4.175642 0.147714
v 1.002224 4.246186 0.150607
v 1.021856 4.246186 0.147714
v 1.021025 4.235620 0.150485
v 1.021856 4.175642 0.152734
v 1.002224 4.216300 0.152734
v 1.021025 4.214579 0.151982
v 1.036286 4.216300 0.147714
v 1.036286 4.175642 0.150607
v 1.031185 4.214579 0.150485
v 1.002224 -0.057064 -0.147714
v 1.002224 0.024358 -0.153508
v 1.041539 0.024358 -0.147714
v 1.002224 -0.046186 -0.150607
v 1.021856 -0.046186 -0.147714
v 1.021025 -0.035620 -0.150485
v 1.021856 0.024358 -0.152734
v 1.002224 -0.016299 -0.152734
v 1.021025 -0.014579 -0.151982
v 1.036286 -0.016299 -0.147714
v 1.036286 0.024358 -0.150607
v 1.031185 -0.014579 -0.150485
v 1.002224 4.257064 -0.147714
v 1.041539 4.175642 -0.147714
v 1.002224 4.175642 -0.153508
v 1.021856 4.246186 -0.147714
v 1.002224 4.246186 -0.150607
v 1.021025 4.235620 -0.150485
v 1.036286 4.175642 -0.150607
v 1.036286 4.216300 -0.147714
v 1.031185 4.214579 -0.150485
v 1.002224 4.216300 -0.152734
v 1.021856 4.175642 -0.152734
v 1.021025 4.214579 -0.151982
vt 0.379718 0.504718
vt 0.620282 0.504718
vt 0.620282 0.745282
vt 0.379718 0.745282
vt 0.629718 0.504718
vt 0.870282 0.504718
vt 0.870282 0.745282
vt 0.629718 0.745282
vt 0.379718 0.004718
vt 0.620282 0.004718
vt 0.620282 0.245282
vt 0.379718 0.245282
vt 0.129718 0.745282
vt 0.129718 0.747638
vt 0.127462 0.747538
vt 0.127362 0.745282
vt 0.129718 0.750000
vt 0.127462 0.750000
vt 0.379718 0.995282
vt 0.379718 0.997638
vt 0.377462 0.997538
vt 0.377362 0.995282
vt 0.379718 0.000630
vt 0.379718 0.000000
vt 0.377462 0.000000
vt 0.377462 0.001243
vt 0.377362 0.004718
vt 0.377462 0.002462
vt 0.379718 0.002362
vt 0.125630 0.745282
vt 0.125000 0.745282
vt 0.125000 0.747538
vt 0.126243 0.747538
vt 0.125000 0.747538
vt 0.620282 0.995282
vt 0.622638 0.995282
vt 0.622538 0.997538
vt 0.620282 0.997638
vt 0.625000 0.995282
vt 0.625000 0.997538
vt 0.872638 0.745282
vt 0.872538 0.747538
vt 0.870282 0.747638
vt 0.624370 0.004718
vt 0.625000 0.004718
vt 0.625000 0.002462
vt 0.623757 0.002462
vt 0.620282 0.002362
vt 0.622538 0.002462
vt 0.622638 0.004718
vt 0.620282 0.000000
vt 0.622538 0.000000
vt 0.622538 1.000000
vt 0.129718 0.504718
vt 0.127362 0.504718
vt 0.127462 0.502462
vt 0.129718 0.502362
vt 0.125000 0.504718
vt 0.125000 0.502462
vt 0.379718 0.247638
vt 0.377462 0.247538
vt 0.377362 0.245282
vt 0.379718 0.250000
vt 0.377462 0.250000
vt 0.379718 0.254718
vt 0.377362 0.254718
vt 0.377462 0.252462
vt 0.379718 0.252362
vt 0.129718 0.500630
vt 0.129718 0.500000
vt 0.127462 0.500000
vt 0.127462 0.501243
vt 0.127462 0.500000
vt 0.870282 0.502362
vt 0.872538 0.502462
vt 0.872638 0.504718
vt 0.624370 0.254718
vt 0.625000 0.254718
vt 0.625000 0.252462
vt 0.623757 0.252462
vt 0.620282 0.254718
vt 0.620282 0.252362
vt 0.622538 0.252462
vt 0.622638 0.254718
vt 0.620282 0.250000
vt 0.622538 0.250000
vt 0.622638 0.245282
vt 0.622538 0.247538
vt 0.620282 0.247638
vt 0.625000 0.245282
vt 0.625000 0.247538
vt 0.370282 0.745282
vt 0.372638 0.745282
vt 0.372538 0.747538
vt 0.370282 0.747638
vt 0.375000 0.745282
vt 0.375000 0.747538
vt 0.379718 0.747638
vt 0.377462 0.747538
vt 0.377362 0.745282
vt 0.379718 0.750000
vt 0.377462 0.750000
vt 0.379718 0.754718
vt 0.377362 0.754718
vt 0.377462 0.752462
vt 0.379718 0.752362
vt 0.370282 0.749370
vt 0.370282 0.750000
vt 0.372538 0.750000
vt 0.372538 0.748757
vt 0.372538 0.750000
vt 0.629718 0.747638
vt 0.627462 0.747538
vt 0.627362 0.745282
vt 0.624370 0.754718
vt 0.625000 0.754718
vt 0.625000 0.752462
vt 0.623757 0.752462
vt 0.620282 0.754718
vt 0.620282 0.752362
vt 0.622538 0.752462
vt 0.622638 0.754718
vt 0.620282 0.750000
vt 0.622538 0.750000
vt 0.622638 0.745282
vt 0.622538 0.747538
vt 0.620282 0.747638
vt 0.625000 0.745282
vt 0.625000 0.747538
vt 0.370282 0.504718
vt 0.370282 0.502362
vt 0.372538 0.502462
vt 0.372638 0.504718
vt 0.370282 0.500000
vt 0.372538 0.500000
vt 0.379718 0.495282
vt 0.379718 0.497638
vt 0.377462 0.497538
vt 0.377362 0.495282
vt 0.379718 0.500000
vt 0.377462 0.500000
vt 0.377362 0.504718
vt 0.377462 0.502462
vt 0.379718 0.502362
vt 0.375000 0.504718
vt 0.375000 0.502462
vt 0.375000 0.502462
vt 0.627362 0.504718
vt 0.627462 0.502462
vt 0.629718 0.502362
vt 0.625000 0.504718
vt 0.625000 0.502462
vt 0.620282 0.502362
vt 0.622538 0.502462
vt 0.622638 0.504718
vt 0.620282 0.500000
vt 0.622538 0.500000
vt 0.620282 0.495282
vt 0.622638 0.495282
vt 0.622538 0.497538
vt 0.620282 0.497638
vt 0.625000 0.495282
vt 0.625000 0.497538
vt 0.623757 0.502462
vt 0.125000 0.745282
vt 0.379718 0.000000
vt 0.625000 0.004718
vt 0.129718 0.500000
vt 0.625000 0.254718
vt 0.370282 0.750000
vt 0.625000 0.754718
vn 1.0000 0.0000 0.0000
vn 0.0000 1.0000 0.0000
vn -1.0000 0.0000 0.0000
vn -0.1413 -0.2477 0.9585
vn -0.0463 -0.0709 0.9964
vn -0.0405 -0.0196 0.9990
vn -0.1458 -0.0222 0.9891
vn -0.4710 -0.0626 0.8799
vn -0.4146 -0.2002 0.8877
vn -0.1454 -0.0702 0.9869
vn -0.0405 0.0196 0.9990
vn -0.0463 0.0709 0.9964
vn -0.1413 0.2477 0.9585
vn -0.4146 0.2002 0.8877
vn -0.4710 0.0626 0.8799
vn -0.1458 0.0222 0.9891
vn -0.1454 0.0702 0.9869
vn -0.1413 -0.2477 -0.9585
vn -0.4146 -0.2002 -0.8877
vn -0.4710 -0.0626 -0.8799
vn -0.1458 -0.0222 -0.9891
vn -0.0405 -0.0196 -0.9990
vn -0.0463 -0.0709 -0.9964
vn -0.1454 -0.0702 -0.9869
vn -0.1413 0.2477 -0.9585
vn -0.0463 0.0709 -0.9964
vn -0.0405 0.0196 -0.9990
vn -0.1458 0.0222 -0.9891
vn -0.4710 0.0626 -0.8799
vn -0.4146 0.2002 -0.8877
vn -0.1454 0.0702 -0.9869
vn 0.1413 -0.2477 0.9585
vn 0.4146 -0.2002 0.8877
vn 0.4710 -0.0626 0.8799
vn 0.1458 -0.0222 0.9891
vn 0.0405 -0.0196 0.9990
vn 0.0463 -0.0709 0.9964
vn 0.1454 -0.0702 0.9869
vn 0.1413 0.2477 0.9585
vn 0.0463 0.0709 0.9964
vn 0.0405 0.0196 0.9990
vn 0.1458 0.0222 0.9891
vn 0.4710 0.0626 0.8799
vn 0.4146 0.2002 0.8877
vn 0.1454 0.0702 0.9869
vn 0.1413 -0.2477 -0.9585
vn 0.0463 -0.0709 -0.9964
vn 0.0405 -0.0196 -0.9990
vn 0.1458 -0.0222 -0.9891
vn 0.4710 -0.0626 -0.8799
vn 0.4146 -0.2002 -0.8877
vn 0.1454 -0.0702 -0.9869
vn 0.1413 0.2477 -0.9585
vn 0.4146 0.2002 -0.8877
vn 0.4710 0.0626 -0.8799
vn 0.1458 0.0222 -0.9891
vn 0.0405 0.0196 -0.9990
vn 0.0463 0.0709 -0.9964
vn 0.1454 0.0702 -0.9869
vn -0.4847 -0.8747 0.0000
vn -0.9005 -0.4348 0.0000
vn -0.9918 -0.1281 0.0000
vn -0.0394 0.0000 0.9992
vn -0.1458 0.0000 0.9893
vn -0.4825 0.0000 0.8759
vn -0.4847 0.8747 0.0000
vn -0.9005 0.4348 0.0000
vn -0.9918 0.1281 0.0000
vn -0.0394 0.0000 -0.9992
vn -0.1458 0.0000 -0.9893
vn -0.4825 0.0000 -0.8759
vn 0.0000 -0.2571 -0.9664
vn 0.0000 -0.0710 -0.9975
vn 0.0000 -0.0190 -0.9998
vn 0.0000 0.2571 -0.9664
vn 0.0000 0.0710 -0.9975
vn 0.0000 0.0190 -0.9998
vn 0.4825 0.0000 -0.8759
vn 0.1458 0.0000 -0.9893
vn 0.0394 0.0000 -0.9992
vn 0.4847 -0.8747 0.0000
vn 0.9005 -0.4348 0.0000
vn 0.9918 -0.1281 0.0000
vn 0.4847 0.8747 0.0000
vn 0.9005 0.4348 0.0000
vn 0.9918 0.1281 0.0000
vn 0.0394 0.0000 0.9992
vn 0.1458 0.0000 0.9893
vn 0.4825 0.0000 0.8759
vn 0.0000 -0.2571 0.9664
vn 0.0000 -0.0710 0.9975
vn 0.0000 -0.0190 0.9998
vn 0.0000 0.2571 0.9664
vn 0.0000 0.0710 0.9975
vn 0.0000 0.0190 0.9998
vn 0.0000 -1.0000 0.0000
usemtl chambrant
s off
f 75/1/1 86/2/1 63/3/1 50/4/1
f 85/5/2 37/6/2 14/7/2 61/8/2
f 3/9/3 15/10/3 39/11/3 26/12/3
f 1/13/4 4/14/4 6/15/4 5/16/4
f 4/14/5 8/17/5 9/18/5 6/15/5
f 2/19/6 7/20/6 9/21/6 8/22/6
f 7/23/7 11/24/7 12/25/7 9/26/7
f 3/9/8 10/27/8 12/28/8 11/29/8
f 10/30/9 5/31/9 6/32/9 12/33/9
f 6/15/10 9/18/10 12/34/10
f 13/35/11 16/36/11 18/37/11 17/38/11
f 16/36/12 20/39/12 21/40/12 18/37/12
f 14/7/13 19/41/13 21/42/13 20/43/13
f 19/44/14 23/45/14 24/46/14 21/47/14
f 15/10/15 22/48/15 24/49/15 23/50/15
f 22/48/16 17/51/16 18/52/16 24/49/16
f 18/37/17 21/40/17 24/53/17
f 25/54/18 28/55/18 30/56/18 29/57/18
f 28/55/19 32/58/19 33/59/19 30/56/19
f 26/12/20 31/60/20 33/61/20 32/62/20
f 31/60/21 35/63/21 36/64/21 33/61/21
f 27/65/22 34/66/22 36/67/22 35/68/22
f 34/69/23 29/70/23 30/71/23 36/72/23
f 30/56/24 33/59/24 36/73/24
f 37/6/25 40/74/25 42/75/25 41/76/25
f 40/77/26 44/78/26 45/79/26 42/80/26
f 38/81/27 43/82/27 45/83/27 44/84/27
f 43/82/28 47/85/28 48/86/28 45/83/28
f 39/11/29 46/87/29 48/88/29 47/89/29
f 46/87/30 41/90/30 42/91/30 48/88/30
f 42/80/31 45/79/31 48/86/31
f 49/92/32 52/93/32 54/94/32 53/95/32
f 52/93/33 56/96/33 57/97/33 54/94/33
f 50/4/34 55/98/34 57/99/34 56/100/34
f 55/98/35 59/101/35 60/102/35 57/99/35
f 51/103/36 58/104/36 60/105/36 59/106/36
f 58/107/37 53/108/37 54/109/37 60/110/37
f 54/94/38 57/97/38 60/111/38
f 61/8/39 64/112/39 66/113/39 65/114/39
f 64/115/40 68/116/40 69/117/40 66/118/40
f 62/119/41 67/120/41 69/121/41 68/122/41
f 67/120/42 71/123/42 72/124/42 69/121/42
f 63/3/43 70/125/43 72/126/43 71/127/43
f 70/125/44 65/128/44 66/129/44 72/126/44
f 66/118/45 69/117/45 72/124/45
f 73/130/46 76/131/46 78/132/46 77/133/46
f 76/131/47 80/134/47 81/135/47 78/132/47
f 74/136/48 79/137/48 81/138/48 80/139/48
f 79/137/49 83/140/49 84/141/49 81/138/49
f 75/1/50 82/142/50 84/143/50 83/144/50
f 82/142/51 77/145/51 78/146/51 84/143/51
f 78/132/52 81/135/52 84/147/52
f 85/5/53 88/148/53 90/149/53 89/150/53
f 88/148/54 92/151/54 93/152/54 90/149/54
f 86/2/55 91/153/55 93/154/55 92/155/55
f 91/153/56 95/156/56 96/157/56 93/154/56
f 87/158/57 94/159/57 96/160/57 95/161/57
f 94/159/58 89/162/58 90/163/58 96/160/58
f 90/164/59 93/152/59 96/157/59
f 25/54/60 1/13/60 5/16/60 28/55/60
f 28/55/61 5/16/61 10/165/61 32/58/61
f 32/62/62 10/27/62 3/9/62 26/12/62
f 2/19/63 13/35/63 17/38/63 7/20/63
f 7/166/64 17/51/64 22/48/64 11/29/64
f 11/29/65 22/48/65 15/10/65 3/9/65
f 14/7/66 37/6/66 41/76/66 19/41/66
f 19/167/67 41/90/67 46/87/67 23/50/67
f 23/50/68 46/87/68 39/11/68 15/10/68
f 38/81/69 27/65/69 35/68/69 43/82/69
f 43/82/70 35/68/70 31/60/70 47/89/70
f 47/89/71 31/60/71 26/12/71 39/11/71
f 73/130/72 25/54/72 29/57/72 76/131/72
f 76/131/73 29/57/73 34/168/73 80/134/73
f 80/139/74 34/66/74 27/65/74 74/136/74
f 37/6/75 85/5/75 89/150/75 40/74/75
f 40/169/76 89/162/76 94/159/76 44/84/76
f 44/84/77 94/159/77 87/158/77 38/81/77
f 86/2/78 75/1/78 83/144/78 91/153/78
f 91/153/79 83/144/79 79/137/79 95/161/79
f 95/161/80 79/137/80 74/136/80 87/158/80
f 49/92/81 73/130/81 77/133/81 52/93/81
f 52/93/82 77/133/82 82/142/82 56/100/82
f 56/100/83 82/142/83 75/1/83 50/4/83
f 85/5/84 61/8/84 65/114/84 88/148/84
f 88/148/85 65/114/85 70/125/85 92/155/85
f 92/155/86 70/125/86 63/3/86 86/2/86
f 62/119/87 51/103/87 59/106/87 67/120/87
f 67/120/88 59/106/88 55/98/88 71/127/88
f 71/127/89 55/98/89 50/4/89 63/3/89
f 1/13/90 49/92/90 53/95/90 4/14/90
f 4/14/91 53/95/91 58/170/91 8/17/91
f 8/22/92 58/104/92 51/103/92 2/19/92
f 61/8/93 14/7/93 20/43/93 64/112/93
f 64/171/94 20/39/94 16/36/94 68/122/94
f 68/122/95 16/36/95 13/35/95 62/119/95
f 25/54/96 73/130/96 49/92/96 1/13/96
